<svg xmlns="http://www.w3.org/2000/svg" viewBox="0 0 317.12 98.72"><defs><style>.cls-1{fill:#006a44;}.cls-2{fill:#fff2c7;}.cls-3{fill:#bf9d42;}.cls-4{fill:#231f20;}.cls-5{fill:#0f1011;}.cls-6{fill:#fbf4a8;}.cls-7{fill:none;}.cls-8{fill:#016b45;}</style></defs><title>Asset 1</title><g id="Layer_2" data-name="Layer 2"><g id="Layer_1-2" data-name="Layer 1"><g id="_Group_" data-name=" Group "><g id="_Group_2" data-name=" Group 2"><circle id="_Path_" data-name=" Path " class="cls-1" cx="49.36" cy="49.36" r="49.36"/></g><g id="_Group_3" data-name=" Group 3"><g id="_Group_4" data-name=" Group 4"><circle id="_Path_2" data-name=" Path 2" class="cls-2" cx="49.22" cy="50.69" r="36.09"/></g></g><g id="_Group_5" data-name=" Group 5"><g id="_Group_6" data-name=" Group 6"><g id="_Group_7" data-name=" Group 7"><path id="_Path_3" data-name=" Path 3" class="cls-2" d="M4.67,45.6c0-.06-.17-.27-.55-.63l-.51.75s.08.12.2.27a.82.82,0,0,1,.16.25.94.94,0,0,1-.2.35,2.08,2.08,0,0,1-.27.32c.25.27.43.48.55.62a1.89,1.89,0,0,0,.25-.31,2.76,2.76,0,0,0,.25-.44c-.13-.15-.25-.3-.35-.44L4.45,46A2.77,2.77,0,0,0,4.67,45.6Z"/></g><g id="_Group_8" data-name=" Group 8"><path id="_Path_4" data-name=" Path 4" class="cls-2" d="M10,41.45l-.58.65.19.27a.78.78,0,0,1,.16.24.9.9,0,0,1-.23.32,2.68,2.68,0,0,1-.3.28c.23.26.4.47.52.63a1.07,1.07,0,0,0,.3-.3,1.83,1.83,0,0,0,.26-.36c-.13-.15-.24-.3-.34-.44a3.49,3.49,0,0,0,.56-.65C10.54,42,10.38,41.8,10,41.45Z"/></g><g id="_Group_9" data-name=" Group 9"><path id="_Compound_Path_" data-name=" Compound Path " class="cls-2" d="M13.38,29.36A4.17,4.17,0,0,1,13,29a3,3,0,0,0-.53-.41c-.7-.31-1.09-.49-1.18-.54L10.87,27a3.61,3.61,0,0,1-1,.59.47.47,0,0,1-.33,0l-.19-.07a1.54,1.54,0,0,0,.25.57l.37.58a1.07,1.07,0,0,0,.38-.13l.91.32a6.87,6.87,0,0,1,1.06.42.1.1,0,0,1,.1.08l-.46.81-.23.28a1.13,1.13,0,0,0-.26-.23,1.1,1.1,0,0,0-1.37.49,2.61,2.61,0,0,0-.14,1,8.34,8.34,0,0,0,0,1l.11.83a1.32,1.32,0,0,1,0,.56.34.34,0,0,1-.19.2.23.23,0,0,1-.25,0l-.27-.21a1.06,1.06,0,0,0-.26-.17.47.47,0,0,0-.26-.05c.2.49.32.76.35.81.38.17.54.3.49.41l-.24.61-.14.47L9,35.94a3.19,3.19,0,0,1-.38-.26A4.72,4.72,0,0,1,8,37a7.36,7.36,0,0,1-.69.79,2,2,0,0,0-.55.83.33.33,0,0,0,0,.14,1.09,1.09,0,0,0,.21.72,2.4,2.4,0,0,0,.52.58c.13.07.18.11.16.1s.06,0,.07,0a.49.49,0,0,0,0-.17.86.86,0,0,1,0-.59,7.21,7.21,0,0,1,.76-1.13,2.2,2.2,0,0,1,.06,1.08l-.38,1.55v.14a.51.51,0,0,1-.19.32.37.37,0,0,1-.35.06,5.49,5.49,0,0,0-1.13-.28,4.16,4.16,0,0,0,.32.39,4.4,4.4,0,0,0,.35.39,3.19,3.19,0,0,1,.8.23L7.67,43.7,7.61,44a.62.62,0,0,1-.25.57A8,8,0,0,1,6,44.73a6.81,6.81,0,0,0-1.49.17l.89.67a.22.22,0,0,0,.16,0H5.7a2.75,2.75,0,0,1,.32.67,4.08,4.08,0,0,0,.35.73,2.54,2.54,0,0,0,.74.48,2.84,2.84,0,0,0,.68.27,9.71,9.71,0,0,1,.44-1.6v-.06A.57.57,0,0,0,8,45.69a1.5,1.5,0,0,1-.43-.33,5.18,5.18,0,0,0,.66-.14.52.52,0,0,0,.39-.47l.08-.66.26-1.44-.58-.47a.68.68,0,0,0,.76-.58l.1-.56.29-1.17a2.13,2.13,0,0,0-.12-1,2,2,0,0,1-.12-.94c.14-.49.23-.8.28-.92l.73.11L10.58,36l.12-.3a4.23,4.23,0,0,0-.34-.4c.36,0,.57-.12.63-.26l2-4.24.53-.94v-.05a.38.38,0,0,0,0-.15.18.18,0,0,0,0-.25A.16.16,0,0,0,13.38,29.36ZM6.85,45.73a3.16,3.16,0,0,1-.13.53.37.37,0,0,1-.16-.21,1.16,1.16,0,0,0-.37-.53c-.09-.08-.13-.13-.13-.15.54-.07.84-.11.87-.1s0,.29-.08.43ZM10.48,33.2a2.37,2.37,0,0,0-.05-.66,1.81,1.81,0,0,1,.1-.83,1,1,0,0,1,.88-.63Z"/></g></g><g id="_Group_10" data-name=" Group 10"><path id="_Compound_Path_2" data-name=" Compound Path 2" class="cls-2" d="M13.41,26.6a2.39,2.39,0,0,1,1.09,1.31l-2.83-1.29a2.31,2.31,0,0,1-.37-.6c-.18-.34-.29-.55-.32-.62l.82.35A14.57,14.57,0,0,1,13.41,26.6Z"/></g><g id="_Group_11" data-name=" Group 11"><path id="_Compound_Path_3" data-name=" Compound Path 3" class="cls-2" d="M16.17,22.65l.57.87a3.42,3.42,0,0,0-.78.69,3,3,0,0,0-.53,1,4.75,4.75,0,0,1,1,.52,4,4,0,0,1,.58.59c.29.35.41.56.35.63a19.92,19.92,0,0,1-2.18-1.18.65.65,0,0,1-.22-.36,2.32,2.32,0,0,0-.1-.45,2.56,2.56,0,0,1,.31-1.21.66.66,0,0,0-.56.22.89.89,0,0,0-.1.6V25a1.41,1.41,0,0,1-.21-.32,4.91,4.91,0,0,1-.33-.74A1,1,0,0,1,14,23a1.71,1.71,0,0,1,1.09-.32Z"/></g><g id="_Group_12" data-name=" Group 12"><path id="_Compound_Path_4" data-name=" Compound Path 4" class="cls-2" d="M26.25,15.48c-.08-.21-.13-.37-.17-.48a2.84,2.84,0,0,0-.29-.61l-.82-1,.1-1.17a3.6,3.6,0,0,1-1.18.08.46.46,0,0,1-.28-.17L23.47,12s-.06.24,0,.62l.08.7h.39l.68.69a7.79,7.79,0,0,1,.76.86c0,.06.06.09.05.11l-.73.49h0l-.07.06h0l-.09.07c-.11.08-.21.05-.31-.09s-.47-.54-1.16-1.29a8.92,8.92,0,0,0-1.15-1.15v1.26l1.88,1.81-.7.53-.49.38a2.29,2.29,0,0,1-.07-.36.68.68,0,0,0-.13-.39.86.86,0,0,0-.59-.23,1.22,1.22,0,0,0-.93.31,1.56,1.56,0,0,0-.42.56,1,1,0,0,0-.12.34,1.2,1.2,0,0,0,.11.52,2.52,2.52,0,0,0,.13.47,2.85,2.85,0,0,1,.23-.26.82.82,0,0,1,.49-.2,1.21,1.21,0,0,1,.38,0l-1.21,1.07-.1.1c-.09.08-.19.07-.31-.05s-.54-.48-1.32-1.14a7.73,7.73,0,0,0-1.28-1c.06.5.13.91.19,1.24l2.09,1.56-.61.59-.4.4a3.49,3.49,0,0,0-.79-.41c-.5-.2-.84-.21-1,0s-.17.64.1,1.25a3.47,3.47,0,0,0,.55,1,.68.68,0,0,0,.81,0,2.81,2.81,0,0,0,.62-.52,4,4,0,0,1-.19,1.42,1.68,1.68,0,0,1-.33.58,3,3,0,0,1-.52.42c-.15.1-.2.17-.16.21a1.44,1.44,0,0,0,.81-.2,3.26,3.26,0,0,0,.87-.59,1.41,1.41,0,0,0,.24-1.07,2.84,2.84,0,0,0-.33-1.21l.34-.36.49-.47c-.11-.38-.18-.63-.23-.74l.36.33c.1.09.19.1.27,0l.65-.63,1.13-1q0-.3-.09-.6l.55.2.74-.62.54-.41a6.35,6.35,0,0,0-.13-.76l.31.38a.19.19,0,0,0,.25,0l0,0,.68-.51.79-.54h.05l.11-.11ZM18.1,21.36a.9.9,0,0,1-.32.23.32.32,0,0,1-.35,0c-.07-.23-.06-.38,0-.45a.4.4,0,0,1,.37-.07,1.71,1.71,0,0,1,.38.13A.33.33,0,0,1,18.1,21.36Z"/></g><g id="_Group_13" data-name=" Group 13"><g id="_Group_14" data-name=" Group 14"><path id="_Path_5" data-name=" Path 5" class="cls-2" d="M28.22,10.66a1.09,1.09,0,0,0,.23-.39c.1-.23.14-.37.12-.41l-.43-.12a1.41,1.41,0,0,0-.45-.07,2,2,0,0,0-.17.41,1.51,1.51,0,0,0-.1.42,1,1,0,0,0,.39.11A1.4,1.4,0,0,0,28.22,10.66Z"/></g><g id="_Group_15" data-name=" Group 15"><path id="_Path_6" data-name=" Path 6" class="cls-2" d="M33.54,11.73c-.06-.31-.13-.59-.2-.85v-.06a5.17,5.17,0,0,0-.18-.51A2.54,2.54,0,0,0,33,10a3.49,3.49,0,0,0-1.14-.88,4.82,4.82,0,0,1-.12,1.07,2.65,2.65,0,0,1,.6.38,4.48,4.48,0,0,1,.4.36l-2,.89-.23.11a.87.87,0,0,1-.65.08,3,3,0,0,1-.57-.27,3,3,0,0,0-.5-.26,5.7,5.7,0,0,1-.05,1q0,.26.39.12a1,1,0,0,1,.52.37c.09.16,0,.56-.3,1.19a2,2,0,0,1-.75,1,2,2,0,0,1-.69.15h-.32a2.63,2.63,0,0,0,1,.13,3.17,3.17,0,0,0,1.14-.18,1.45,1.45,0,0,0,.55-1.14,4.27,4.27,0,0,0,0-1.13.37.37,0,0,0,.29,0l.17-.06.27-.15h0Z"/></g><g id="_Group_16" data-name=" Group 16"><path id="_Path_7" data-name=" Path 7" class="cls-2" d="M32.9,12.71l-.11.32a1.23,1.23,0,0,1-.12.26.86.86,0,0,1-.39,0,1.32,1.32,0,0,1-.39-.1c-.1.35-.18.61-.24.79a1.2,1.2,0,0,0,.42.08,1.62,1.62,0,0,0,.44,0,4.76,4.76,0,0,1,.19-.53l.43.06h.42c.06,0,.13-.29.22-.8Z"/></g></g><g id="_Group_17" data-name=" Group 17"><g id="_Group_18" data-name=" Group 18"><path id="_Path_8" data-name=" Path 8" class="cls-2" d="M34.4,7.92a1.35,1.35,0,0,0,.28-.35.89.89,0,0,0,.18-.38A3.79,3.79,0,0,0,34,6.86a2.43,2.43,0,0,0-.23.38,1.16,1.16,0,0,0-.16.4,1.59,1.59,0,0,0,.37.17A1.4,1.4,0,0,0,34.4,7.92Z"/></g><g id="_Group_19" data-name=" Group 19"><path id="_Path_9" data-name=" Path 9" class="cls-2" d="M41,6.82l.54-1a3.67,3.67,0,0,1-1.11-.39.43.43,0,0,1-.2-.26A.6.6,0,0,1,40.14,5c-.06,0-.15.2-.28.56l-.2.66.35.2.35.9a6.88,6.88,0,0,1,.37,1.08V8.5l-.84.17-.6.14a2.37,2.37,0,0,1,.09-.36.72.72,0,0,0,0-.41A.84.84,0,0,0,39,7.58a1.18,1.18,0,0,0-1-.12,1.6,1.6,0,0,0-.62.32c-.16.13-.24.21-.24.25S37,8.3,37,8.55a2,2,0,0,0-.09.48,1.27,1.27,0,0,1,.32-.13,1,1,0,0,1,.85.23l-1.44.39-.24.07a.82.82,0,0,1-.65,0,2.7,2.7,0,0,1-.53-.35,2.36,2.36,0,0,0-.45-.33c-.09.39-.16.73-.21,1,0,0,.11,0,.37.19a1,1,0,0,1,.46.44c.06.17-.1.55-.48,1.13a2,2,0,0,1-.89.85,2.41,2.41,0,0,1-.71.05H33c0,.12.37.22,1,.29a3.23,3.23,0,0,0,1.16,0c.31-.11.54-.46.71-1A3.86,3.86,0,0,0,36,10.74a.48.48,0,0,0,.29,0h.18l.32-.12,1.59-.43c.09-.26.14-.45.17-.57L39,10l.92-.24L41,9.58h0l.15-.06a.19.19,0,0,0,.11-.15V8.86a3.75,3.75,0,0,0,0-.67A11.55,11.55,0,0,0,41,6.82Z"/></g></g><g id="_Group_20" data-name=" Group 20"><path id="_Compound_Path_5" data-name=" Compound Path 5" class="cls-2" d="M43.43,7.49a2.55,2.55,0,0,1-.29,1.69l-.86-3a2.68,2.68,0,0,1,.21-.68c.14-.36.23-.57.26-.64.13.38.22.66.27.85A15.8,15.8,0,0,1,43.43,7.49Z"/></g><g id="_Group_21" data-name=" Group 21"><g id="_Group_22" data-name=" Group 22"><path id="_Path_10" data-name=" Path 10" class="cls-2" d="M50.12,9.88a2.3,2.3,0,0,0-.38-.32,1.31,1.31,0,0,0-.4.3q-.33.3-.33.36c0,.06.11.14.32.32a1.66,1.66,0,0,0,.39.26,1.16,1.16,0,0,0,.41-.25,1.12,1.12,0,0,0,.34-.31S50.35,10.1,50.12,9.88Z"/></g><g id="_Group_23" data-name=" Group 23"><path id="_Path_11" data-name=" Path 11" class="cls-2" d="M55.7,8l-.94-.07-.94-.07a.64.64,0,0,1-.3-.08A3.64,3.64,0,0,1,53,7.27.9.9,0,0,1,52.76,7,.5.5,0,0,0,53,6.87a2.75,2.75,0,0,1,.81,0,2.46,2.46,0,0,1,1,.25,2.32,2.32,0,0,1,.44.39A1.29,1.29,0,0,0,55,6.66,1.25,1.25,0,0,0,54,6a1.73,1.73,0,0,0-1.13.41,3.56,3.56,0,0,0-.6.49.92.92,0,0,0-.32.54v.27H51.1a.48.48,0,0,1-.34-.14.35.35,0,0,1-.12-.33,4.51,4.51,0,0,0,.09-1.16s-.14.15-.33.38l-.34.41a2.83,2.83,0,0,1-.09.82H48c-.12,0-.24-.16-.37-.5l-.21-.65C47.18,5.85,47,5.35,46.86,5l-.24.57c-.14.34-.21.51-.21.53l.27.73a4.11,4.11,0,0,1,.26.91l-1.82.14c-.15,0-.24-.09-.26-.31V7.29a1.31,1.31,0,0,0,0-.28.44.44,0,0,0-.19.27,1,1,0,0,0-.06.25c0,.46-.08.86-.09,1.19a.23.23,0,0,0,.08.17.27.27,0,0,0,.17.06l1.92-.15c.09,0,.17-.1.24-.28a1.06,1.06,0,0,1,.18-.35c.06.13.12.26.17.4s.12.18.2.17h2.23c.15-.26.28-.47.37-.64.1.43.33.65.7.65h.56l3.71.35Z"/></g></g><g id="_Group_24" data-name=" Group 24"><g id="_Group_25" data-name=" Group 25"><path id="_Path_12" data-name=" Path 12" class="cls-2" d="M59.18,7.3a1.21,1.21,0,0,0,.44-.15C59.85,7,60,7,60,6.92a3.26,3.26,0,0,0-.24-.4,2.06,2.06,0,0,0-.29-.37,1,1,0,0,0-.42.2c-.25.14-.37.23-.38.27s.07.14.23.35S59.14,7.29,59.18,7.3Z"/></g><g id="_Group_26" data-name=" Group 26"><path id="_Path_13" data-name=" Path 13" class="cls-2" d="M61.9,11.2a1,1,0,0,0-.47.16c-.27.16-.41.21-.42.25a1.47,1.47,0,0,0,.21.39c.15.24.25.36.29.37a1.12,1.12,0,0,0,.47-.11c.26-.09.4-.15.41-.2a2.58,2.58,0,0,0-.22-.44A1.88,1.88,0,0,0,61.9,11.2Z"/></g><g id="_Group_27" data-name=" Group 27"><path id="_Path_14" data-name=" Path 14" class="cls-2" d="M64,8.66A2,2,0,0,0,63.82,8c-.5.43-.78.68-.84.74a2.21,2.21,0,0,1,.21.8V10l-1.77-.6-.28-.11a.55.55,0,0,1-.37-.41c-.11-.38-.19-.66-.25-.85l-.78.77a3.43,3.43,0,0,1,.26,1,1.37,1.37,0,0,1,0,.57,1.25,1.25,0,0,1-.66.09,2.77,2.77,0,0,1-.76-.08,2,2,0,0,1-.69-.31.66.66,0,0,1-.36-.73,2.53,2.53,0,0,1,.64-1V8a3.7,3.7,0,0,0-.65.6,2.84,2.84,0,0,0-.74,1.29c-.16.66.29,1.12,1.37,1.38a2.75,2.75,0,0,0,.81,0,2,2,0,0,0,.73-.16,1.81,1.81,0,0,0,.53-.5,1.51,1.51,0,0,0,.29-.45l.44.14,2.24.75c.1-.13.31-.43.6-.9a2.56,2.56,0,0,0,.26-.81A2.48,2.48,0,0,0,64,8.66Z"/></g></g><g id="_Group_28" data-name=" Group 28"><path id="_Compound_Path_6" data-name=" Compound Path 6" class="cls-2" d="M68.2,12.06c-.3.65-.56.92-.78.82l-2-.93.54-.9,1.7.78a1.06,1.06,0,0,0,0-.56,1.42,1.42,0,0,0-.19-.52,5.07,5.07,0,0,0-.35-.46c.23-.28.49-.56.75-.83a1.65,1.65,0,0,1,.27.38,2.32,2.32,0,0,1,.27,1.81A1.77,1.77,0,0,1,68.2,12.06Z"/></g><g id="_Group_29" data-name=" Group 29"><path id="_Compound_Path_7" data-name=" Compound Path 7" class="cls-2" d="M78.1,17.74a1.24,1.24,0,0,0-.53.18l-.26.38-.58-.48h0a6,6,0,0,1,1-.73c-.06-.05-.23,0-.51,0a1.08,1.08,0,0,0-.51.14,3.37,3.37,0,0,0-.37.29c-.2-.14-.36-.27-.5-.38s-.41-.38-.4-.44a4.25,4.25,0,0,0,.46-.27,2.38,2.38,0,0,0,.53-.47c.06-.06.07-.1,0-.09a3.43,3.43,0,0,0-1,.21,1.16,1.16,0,0,1-.44.35l-.88-.68-.42-.27a1.29,1.29,0,0,1,.33-.17.71.71,0,0,0,.34-.23.75.75,0,0,0,.07-.62,1.24,1.24,0,0,0-.54-.83,1.77,1.77,0,0,0-.66-.25.69.69,0,0,0-.35,0l-.47.24a1.79,1.79,0,0,0-.42.25,1.82,1.82,0,0,1,.31.16.81.81,0,0,1,.32.41.82.82,0,0,1,.06.38L71.46,14,71,13.71a3.78,3.78,0,0,0,.23-.86c.09-.54,0-.87-.22-1s-.66,0-1.19.37A2.85,2.85,0,0,0,69,13a.64.64,0,0,0,.18.79,2.37,2.37,0,0,0,.64.49,3.84,3.84,0,0,1-1.43.12,1.44,1.44,0,0,1-.64-.19,2.34,2.34,0,0,1-.52-.42c-.13-.12-.21-.16-.24-.11a1.27,1.27,0,0,0,.37.75,2.78,2.78,0,0,0,.77.72,1.38,1.38,0,0,0,1.09,0,3,3,0,0,0,1.11-.59l.44.25,1.39.93.55-.24a1.75,1.75,0,0,1,0,.58l1,.66s.45.36.51.39a.37.37,0,0,0,.21,0h.23a.65.65,0,0,1-.11.29l1.08.9h.23v.19l1.09.91a5.45,5.45,0,0,1,.62-.35c.09,0,.25-.15.47-.41l.73-.87A2.08,2.08,0,0,0,78.1,17.74Zm-7.72-4.51H70.2a1,1,0,0,1-.3-.27.32.32,0,0,1-.06-.34c.21-.12.35-.15.44-.1s.14.16.14.35A1.47,1.47,0,0,1,70.38,13.23Z"/></g><g id="_Group_30" data-name=" Group 30"><g id="_Group_31" data-name=" Group 31"><path id="_Path_15" data-name=" Path 15" class="cls-2" d="M81.18,20.8a1.21,1.21,0,0,0,.95.46.88.88,0,0,0,.58-.21c.12-.11.11-.26-.06-.45a.91.91,0,0,1-.27-.5,2.26,2.26,0,0,1,.83.49,3.31,3.31,0,0,0,.68-.2,2.22,2.22,0,0,0-1.15-.53c-.58-.13-1-.13-1.13,0s-.14.26,0,.45l.28.43a1.69,1.69,0,0,1-.6-.3l-.47-.3a.6.6,0,0,0,.16.35A3.28,3.28,0,0,0,81.18,20.8Z"/></g><g id="_Group_32" data-name=" Group 32"><path id="_Path_16" data-name=" Path 16" class="cls-2" d="M87.54,24.82a2.29,2.29,0,0,0-.62-.06l-.7,0a2.63,2.63,0,0,0-.06.39l-.69.64a7.91,7.91,0,0,1-.88.75c-.07,0-.11.06-.13,0l-.53-.82-.08-.1c-.07-.1,0-.2.1-.31s.55-.46,1.31-1.13a6.6,6.6,0,0,0,1.17-1.13H85.18l-1.85,1.84-.64-1c-.12-.14,0-.43.43-.86l.79-.76A6.26,6.26,0,0,0,85,21.09q-.74.09-1.2.18l-1.72,1.95-2.46-2.8a.58.58,0,0,1-.11-.49.88.88,0,0,1,.28-.47,1.67,1.67,0,0,1,.28-.18l.26-.17h0a1.62,1.62,0,0,0-.68.2,2.61,2.61,0,0,0-.64.39,1.16,1.16,0,0,0-.42.74,1,1,0,0,0,.25.81L81,23.71l.75-.18-.4.35a.13.13,0,0,0,0,.18l0,0,.52.71.4.55c.39-.05.64-.08.76-.11l-.38.3a.18.18,0,0,0-.07.25l0,0,.53.73h0l.48.74.1.14.09.14A.87.87,0,0,1,84,28a2.72,2.72,0,0,1-.13.49,1.65,1.65,0,0,0,1-.21c.12-.07.16-.28.13-.61a1.08,1.08,0,0,1,0-.6c.61-.48,1-.74,1-.79l1.17.13a4.66,4.66,0,0,1,0-1.18C87.19,25.09,87.31,25,87.54,24.82Z"/></g></g><g id="_Group_33" data-name=" Group 33"><path id="_Compound_Path_8" data-name=" Compound Path 8" class="cls-2" d="M86.54,29a2.45,2.45,0,0,1-1.67.34l2.47-1.89a2.41,2.41,0,0,1,.71,0h.69c-.3.25-.53.44-.69.55A14.51,14.51,0,0,1,86.54,29Z"/></g><g id="_Group_34" data-name=" Group 34"><g id="_Group_35" data-name=" Group 35"><path id="_Path_17" data-name=" Path 17" class="cls-2" d="M90,30.24a3.38,3.38,0,0,0,0,.45v.43a2.3,2.3,0,0,0,.8.27l.06-.9-.3-.14a.87.87,0,0,1-.27-.14,1.34,1.34,0,0,1,0-.4,1.42,1.42,0,0,1,.08-.41l-.79-.27a2.63,2.63,0,0,0-.06.39,1.46,1.46,0,0,0,0,.51Z"/></g><g id="_Group_36" data-name=" Group 36"><path id="_Compound_Path_9" data-name=" Compound Path 9" class="cls-2" d="M91.89,39.36a1.11,1.11,0,0,0-.22-.38l-.19-.21a2.93,2.93,0,0,0-.42-.37,2.5,2.5,0,0,0-1-.36l-.41,0-.11-.63v-.11h0l-.16-.46a2.29,2.29,0,0,1,.36.07.62.62,0,0,0,.81-.34l0-.1a1.2,1.2,0,0,0,0-1,1.73,1.73,0,0,0-.37-.59c-.14-.16-.23-.23-.27-.23l-.52-.09a2.05,2.05,0,0,0-.49-.06,1.37,1.37,0,0,1,.16.32.92.92,0,0,1,0,.52.75.75,0,0,1-.18.34l-.49-1.38-.1-.29a.68.68,0,0,1-.07-.62,6.44,6.44,0,0,1,1.12-.82,8.2,8.2,0,0,0,1.21-.89l-1.11-.14a.35.35,0,0,0-.13.11.4.4,0,0,1-.12.1,3.15,3.15,0,0,1-.61-.42,3.84,3.84,0,0,0-.66-.45,2.19,2.19,0,0,0-.88-.06,3.58,3.58,0,0,0-.73.11,9.89,9.89,0,0,1,.41,1.6v.06c.06.12.2.18.44.18s.48,0,.53.08l-.51.44a.57.57,0,0,0-.1.61l.27.6L88,36c.27.07.46.11.59.13-.17.21-.3.36-.38.44l.33,1,.13.47q0,.16.42.24c.24,0,.37.09.39.13l-.17,1.66a1.44,1.44,0,0,0,.5.19,2.75,2.75,0,0,0,.57.12,2.07,2.07,0,0,0,.58-.28l.56-.35.35-.2A.22.22,0,0,0,91.89,39.36ZM88,32.13a4.61,4.61,0,0,1-.15-.53.43.43,0,0,1,.24.1,1.21,1.21,0,0,0,.58.28l.19.06a7.17,7.17,0,0,1-.71.52L88,32.12Zm2.44,7.31.12-.8a.93.93,0,0,1,.31.42c0,.09-.12.21-.43.37Z"/></g></g><g id="_Group_37" data-name=" Group 37"><g id="_Group_38" data-name=" Group 38"><path id="_Path_18" data-name=" Path 18" class="cls-2" d="M89.23,44.88a1.75,1.75,0,0,0-.42-.29,3.75,3.75,0,0,0-.45,1,1.82,1.82,0,0,0,.42.36,2.23,2.23,0,0,0,.41.27h0a3,3,0,0,1,.2-.49,4.43,4.43,0,0,0,.2-.45A1.77,1.77,0,0,0,89.23,44.88Z"/></g><g id="_Group_39" data-name=" Group 39"><path id="_Path_19" data-name=" Path 19" class="cls-2" d="M92.26,43.68a2.93,2.93,0,0,0-.63-.4q-.33-.18-.33-.15a2.27,2.27,0,0,1,.32.75,2.14,2.14,0,0,1-.17.66,4.71,4.71,0,0,1-.21.52,1.62,1.62,0,0,1-.24-.8l-.25-1.68v-.15a1,1,0,0,1,0-.42c1.12-.35,2.24-.68,3.34-1-.57-.28-.88-.42-.93-.44-2.37.64-3.57,1-3.59,1l.24,1.22L90,44.14a1.82,1.82,0,0,0,.38.79,2.2,2.2,0,0,1,.38.82,8.13,8.13,0,0,0,.07,1.06v.5l.93.53a5.21,5.21,0,0,1,.31-1.56,6.52,6.52,0,0,1,.29-.73,5.5,5.5,0,0,0,.25-.63,1.65,1.65,0,0,0,0-.7A.89.89,0,0,0,92.26,43.68Z"/></g><g id="_Group_40" data-name=" Group 40"><path id="_Path_20" data-name=" Path 20" class="cls-2" d="M90.8,47.36Z"/></g></g></g><g id="_Group_41" data-name=" Group 41"><g id="_Group_42" data-name=" Group 42"><path id="_Compound_Path_10" data-name=" Compound Path 10" class="cls-2" d="M8.54,57.62h0l1.85.7.15.85-2-.74L6.35,60l-.16-.88L7.77,58l-.52-.2L6,58.06l-.14-.79,4.19-.74.14.79Z"/></g><g id="_Group_43" data-name=" Group 43"><path id="_Compound_Path_11" data-name=" Compound Path 11" class="cls-2" d="M9.73,60.36l-3.13.72-.17-.74,3.13-.72Zm1.07-.25-.69.16-.17-.74.68-.16Z"/></g><g id="_Group_44" data-name=" Group 44"><path id="_Compound_Path_12" data-name=" Compound Path 12" class="cls-2" d="M10,61.52l-.36.1h0a.84.84,0,0,1,.42.21.9.9,0,0,1,.23.4.74.74,0,0,1-.05.6,1,1,0,0,1-.62.38l-2.29.65-.21-.74,2.13-.6a.59.59,0,0,0,.32-.17.32.32,0,0,0,0-.27c-.07-.26-.28-.34-.62-.24l-2.05.58-.21-.74,3.09-.87Z"/></g><g id="_Group_45" data-name=" Group 45"><path id="_Compound_Path_13" data-name=" Compound Path 13" class="cls-2" d="M8.45,66.51a1.33,1.33,0,0,1-1,0,1.21,1.21,0,0,1-.61-.8,1.11,1.11,0,0,1,0-.78.83.83,0,0,1,.51-.46l.25.69a.3.3,0,0,0-.19.19.33.33,0,0,0,0,.14.29.29,0,0,0,0,.13.35.35,0,0,0,.26.26.82.82,0,0,0,.41,0l.4-.14h0a1,1,0,0,1-.36-.17.65.65,0,0,1-.22-.3A.77.77,0,0,1,8,64.45a2.6,2.6,0,0,1,1.1-.64l.55-.16a2.48,2.48,0,0,1,.54-.06,1.07,1.07,0,0,1,.46.14.75.75,0,0,1,.3.42.65.65,0,0,1,0,.34.76.76,0,0,1-.24.39h0l.34-.12.24.68Zm.46-1.77a.79.79,0,0,0-.23.14.39.39,0,0,0-.14.17.26.26,0,0,0,0,.21.25.25,0,0,0,.14.16.43.43,0,0,0,.22.06h.29a2.06,2.06,0,0,0,.35-.12,2.6,2.6,0,0,0,.75-.36.35.35,0,0,0,.06-.49l-.06-.06a.54.54,0,0,0-.22,0,1.15,1.15,0,0,0-.36.07,4.51,4.51,0,0,0-.52.17,1.33,1.33,0,0,0-.28.1Z"/></g><g id="_Group_46" data-name=" Group 46"><path id="_Compound_Path_14" data-name=" Compound Path 14" class="cls-2" d="M10.47,68.58l-.24.13a.5.5,0,0,0-.15.17.67.67,0,0,0,0,.2.72.72,0,0,0,.07.25.43.43,0,0,0,.26.25.51.51,0,0,0,.42,0,1.1,1.1,0,0,0,.21-.14.62.62,0,0,0,.12-.19,1.13,1.13,0,0,0,0-.26,2.16,2.16,0,0,0,0-.36,4.34,4.34,0,0,1,0-.51,1.8,1.8,0,0,1,.1-.4,1.27,1.27,0,0,1,.24-.33,2,2,0,0,1,.39-.25,1.21,1.21,0,0,1,1-.11,1.27,1.27,0,0,1,.67.68,2,2,0,0,1,.15.47,1.09,1.09,0,0,1,0,.44,1,1,0,0,1-.22.38,1.31,1.31,0,0,1-.43.31H13l-.33-.69a.9.9,0,0,0,.38-.29A.35.35,0,0,0,13,68a.8.8,0,0,0-.13-.19.8.8,0,0,0-.16-.08h-.18a.49.49,0,0,0-.17.06.56.56,0,0,0-.27.21.74.74,0,0,0-.08.41V69a1.62,1.62,0,0,1,0,.44,1.2,1.2,0,0,1-.13.31.66.66,0,0,1-.21.23,2,2,0,0,1-.31.19,1.25,1.25,0,0,1-1,.09,1.47,1.47,0,0,1-.71-.78,1.25,1.25,0,0,1-.13-1,1.29,1.29,0,0,1,.69-.65l.16-.08.34.72Z"/></g><g id="_Group_47" data-name=" Group 47"><path id="_Compound_Path_15" data-name=" Compound Path 15" class="cls-2" d="M12.4,70.06a1.2,1.2,0,0,1,.45-.15.81.81,0,0,1,.38,0,1.06,1.06,0,0,1,.31.21A1.94,1.94,0,0,1,14,71a.86.86,0,0,1,0,.39.72.72,0,0,1-.2.29,2.35,2.35,0,0,1-.32.23L12,72.7a1.53,1.53,0,0,0-.3.19,1.8,1.8,0,0,0-.2.19l-.35-.64a.69.69,0,0,1,.11-.13l.13-.11h0a.73.73,0,0,1-.43-.11,1.12,1.12,0,0,1-.29-.36.75.75,0,0,1-.1-.33.63.63,0,0,1,.07-.3,1,1,0,0,1,.2-.25,1.31,1.31,0,0,1,.27-.19,1.94,1.94,0,0,1,.36-.15.81.81,0,0,1,.31,0,.69.69,0,0,1,.28.11l.29.23.32.32a.43.43,0,0,0,.23.14.37.37,0,0,0,.25-.06.53.53,0,0,0,.21-.21.37.37,0,0,0,0-.29.35.35,0,0,0-.23-.18.55.55,0,0,0-.31.07h-.08L12.4,70Zm-.1,1.46a.69.69,0,0,1-.13-.11.58.58,0,0,0-.31-.2.54.54,0,0,0-.35.08.61.61,0,0,0-.24.21.24.24,0,0,0,0,.26l.1.12a.38.38,0,0,0,.15.09.31.31,0,0,0,.19,0,.57.57,0,0,0,.22-.07l.55-.31A.67.67,0,0,1,12.3,71.52Z"/></g><g id="_Group_48" data-name=" Group 48"><path id="_Compound_Path_16" data-name=" Compound Path 16" class="cls-2" d="M12.9,74.67a.81.81,0,0,1-.46-.08,1,1,0,0,1-.32-.32.67.67,0,0,1-.13-.58.93.93,0,0,1,.47-.54l2-1.29.41.64L13,73.7a.6.6,0,0,0-.25.25.3.3,0,0,0,.05.27c.15.22.37.24.67,0l1.79-1.15.41.64L13,75.5l-.4-.62.31-.2Z"/></g><g id="_Group_49" data-name=" Group 49"><path id="_Compound_Path_17" data-name=" Compound Path 17" class="cls-2" d="M14.54,77a.79.79,0,0,1-.43,0,.63.63,0,0,1-.3-.26.74.74,0,0,1-.1-.78,2.7,2.7,0,0,1,.9-.94,2.69,2.69,0,0,1,1.16-.6.78.78,0,0,1,.88.67h0a.75.75,0,0,1-.07.39h0l1.08-.81.46.62L14.7,77.81l-.44-.58.27-.21Zm-.07-.89a.33.33,0,0,0,.39.52,2.8,2.8,0,0,0,.68-.41,3,3,0,0,0,.59-.53.33.33,0,0,0-.39-.52,2.8,2.8,0,0,0-.68.41,3.1,3.1,0,0,0-.61.53Z"/></g><g id="_Group_50" data-name=" Group 50"><path id="_Compound_Path_18" data-name=" Compound Path 18" class="cls-2" d="M19.66,77.13l-1,.9h0a.9.9,0,0,1,.4,0,.66.66,0,0,1,.31.21.73.73,0,0,1,.17.78,2.77,2.77,0,0,1-.8,1,2.7,2.7,0,0,1-1.1.69.75.75,0,0,1-.76-.25.8.8,0,0,1-.19-.35.75.75,0,0,1,0-.42h0l-.25.23L16,79.38l3.16-2.86Zm-2.5,2.36a.35.35,0,0,0,.09.47.34.34,0,0,0,.35,0,4.67,4.67,0,0,0,1.17-1.06.33.33,0,0,0,0-.42.31.31,0,0,0-.42-.07,3,3,0,0,0-.64.48,3,3,0,0,0-.55.58Z"/></g><g id="_Group_51" data-name=" Group 51"><path id="_Compound_Path_19" data-name=" Compound Path 19" class="cls-2" d="M20.78,79.82l-2.24,2.27L18,81.55l2.27-2.27Zm.78-.77-.5.5L20.52,79l.5-.49Z"/></g><g id="_Group_52" data-name=" Group 52"><path id="_Compound_Path_20" data-name=" Compound Path 20" class="cls-2" d="M21.66,80.67l-.25.28h0a.82.82,0,0,1,.87.17.75.75,0,0,1,.27.54,1.06,1.06,0,0,1-.32.65l-1.6,1.76-.57-.51,1.49-1.64a.61.61,0,0,0,.18-.31.37.37,0,0,0-.12-.24q-.3-.27-.66.12l-1.41,1.58L19,82.55l2.15-2.37Z"/></g><g id="_Group_53" data-name=" Group 53"><path id="_Compound_Path_21" data-name=" Compound Path 21" class="cls-2" d="M26,82.91l-1.71,4-.66-.5.39-.83L23.22,85l-.69.61-.67-.49,3.39-2.79ZM24.37,85l.84-1.76h0l-1.45,1.31Z"/></g><g id="_Group_54" data-name=" Group 54"><path id="_Compound_Path_22" data-name=" Compound Path 22" class="cls-2" d="M27.59,84l-.73,1.13h0a.86.86,0,0,1,.38-.1.77.77,0,0,1,.36.12.73.73,0,0,1,.37.71,4.12,4.12,0,0,1-1.39,2.21.75.75,0,0,1-.79,0,.78.78,0,0,1-.28-.29.77.77,0,0,1-.07-.42h0l-.18.29-.62-.4L27,83.6Zm-1.8,2.93a.36.36,0,0,0,.55.41,3.33,3.33,0,0,0,.49-.63,3.09,3.09,0,0,0,.36-.7.31.31,0,0,0-.13-.4.33.33,0,0,0-.42,0,3.33,3.33,0,0,0-.49.63A2.83,2.83,0,0,0,25.79,86.91Z"/></g><g id="_Group_55" data-name=" Group 55"><path id="_Compound_Path_23" data-name=" Compound Path 23" class="cls-2" d="M28.54,89.13a.84.84,0,0,1-.4.14.78.78,0,0,1-.39-.12.75.75,0,0,1-.42-.67,3.87,3.87,0,0,1,1.25-2.25.77.77,0,0,1,.8,0,.7.7,0,0,1,.28.26,1,1,0,0,1,.1.38h0l.65-1.18.67.37L29,89.78l-.64-.35.17-.3Zm-.43-.78a.33.33,0,0,0,.57.32,3,3,0,0,0,.45-.66,2.8,2.8,0,0,0,.32-.73.33.33,0,0,0-.57-.31,3.15,3.15,0,0,0-.45.65,2.78,2.78,0,0,0-.29.74Z"/></g><g id="_Group_56" data-name=" Group 56"><path id="_Compound_Path_24" data-name=" Compound Path 24" class="cls-2" d="M31.14,90.36a.74.74,0,0,1-.43.17,1,1,0,0,1-.44-.1.72.72,0,0,1-.42-.42A1,1,0,0,1,30,89.3l1-2.15.69.32-.95,2a.61.61,0,0,0-.07.35c0,.09.08.15.18.2a.53.53,0,0,0,.59-.31l.91-1.92.69.32L31.63,91,31,90.7l.16-.34Z"/></g><g id="_Group_57" data-name=" Group 57"><path id="_Compound_Path_25" data-name=" Compound Path 25" class="cls-2" d="M34.54,87.63l-1.63,3.94-.7-.29,1.62-3.94Z"/></g><g id="_Group_58" data-name=" Group 58"><path id="_Compound_Path_26" data-name=" Compound Path 26" class="cls-2" d="M34.32,89.65a1.14,1.14,0,0,1,.24-.41.83.83,0,0,1,.68-.26,1.37,1.37,0,0,1,.4.09,1.8,1.8,0,0,1,.5.25.55.55,0,0,1,.24.65,1.38,1.38,0,0,1-.09.39L35.72,92a3.37,3.37,0,0,0-.1.34,1.22,1.22,0,0,0,0,.27l-.69-.24V92h0a.7.7,0,0,1-.4.2,1.16,1.16,0,0,1-.45-.08.92.92,0,0,1-.3-.18.7.7,0,0,1-.14-.27.86.86,0,0,1,0-.32,1.65,1.65,0,0,1,.07-.32,1.16,1.16,0,0,1,.18-.35.58.58,0,0,1,.22-.22.69.69,0,0,1,.28-.11h.82a.5.5,0,0,0,.27,0,.35.35,0,0,0,.14-.2.51.51,0,0,0,0-.3c0-.09-.1-.15-.22-.19a.3.3,0,0,0-.29,0,.48.48,0,0,0-.18.26v.08l-.65-.23Zm.89,1.17H35a.46.46,0,0,0-.57.31v0a.58.58,0,0,0,0,.32.24.24,0,0,0,.16.2H35a.36.36,0,0,0,.16-.11.82.82,0,0,0,.12-.2l.21-.59Z"/></g><g id="_Group_59" data-name=" Group 59"><path id="_Compound_Path_27" data-name=" Compound Path 27" class="cls-2" d="M37.92,90.59l-1.09-.32.18-.64,2,.57-.18.61-1.67,1.5,1.14.33-.19.64-2-.58.18-.61Z"/></g><g id="_Group_60" data-name=" Group 60"><path id="_Compound_Path_28" data-name=" Compound Path 28" class="cls-2" d="M40.08,90.47l-.76,3.11-.78-.22.76-3.12Zm.26-1.07-.17.68-.74-.18.17-.68Z"/></g><g id="_Group_61" data-name=" Group 61"><path id="_Compound_Path_29" data-name=" Compound Path 29" class="cls-2" d="M41.54,91.45l-1.11-.22.13-.66,2,.4-.12.62L40.9,93.23l1.17.23-.13.65-2-.4.12-.62Z"/></g><g id="_Group_62" data-name=" Group 62"><path id="_Compound_Path_30" data-name=" Compound Path 30" class="cls-2" d="M44.7,93.2a1.41,1.41,0,0,0,0,.29.69.69,0,0,0,0,.24.3.3,0,0,0,.12.17.63.63,0,0,0,.23.08.31.31,0,0,0,.23,0,.36.36,0,0,0,.16-.14.85.85,0,0,0,.09-.22,1.35,1.35,0,0,0,.05-.29l.29-3,.8.08-.29,3a2.15,2.15,0,0,1-.17.65,1.13,1.13,0,0,1-.33.39.74.74,0,0,1-.42.17,1.85,1.85,0,0,1-.47,0,3.55,3.55,0,0,1-.47-.09,1,1,0,0,1-.38-.24.91.91,0,0,1-.24-.44,2.06,2.06,0,0,1,0-.7l.29-3,.8.08Z"/></g><g id="_Group_63" data-name=" Group 63"><path id="_Compound_Path_31" data-name=" Compound Path 31" class="cls-2" d="M47.71,91.5v.37h0a.83.83,0,0,1,.33-.34,1,1,0,0,1,.44-.1.71.71,0,0,1,.56.24,1,1,0,0,1,.18.7l-.08,2.38h-.76l.07-2.22a.61.61,0,0,0-.07-.35.3.3,0,0,0-.25-.1c-.27,0-.41.16-.42.52l-.06,2.12h-.76L47,91.51Z"/></g><g id="_Group_64" data-name=" Group 64"><path id="_Compound_Path_32" data-name=" Compound Path 32" class="cls-2" d="M50.54,90.42v.7h-.76v-.71Zm0,1.1v3.2h-.76V91.51Z"/></g><g id="_Group_65" data-name=" Group 65"><path id="_Compound_Path_33" data-name=" Compound Path 33" class="cls-2" d="M53.18,91.36l-.55,3.25-.88,0-1-3.15.79-.05.58,2.26h0l.25-2.31Z"/></g><g id="_Group_66" data-name=" Group 66"><path id="_Compound_Path_34" data-name=" Compound Path 34" class="cls-2" d="M54.27,93.24v.27a1.6,1.6,0,0,0,.1.23.47.47,0,0,0,.13.15.28.28,0,0,0,.18,0,.34.34,0,0,0,.27-.18,1.24,1.24,0,0,0,.06-.47l.68-.08a1.29,1.29,0,0,1-.17.88,1,1,0,0,1-.76.39,1.24,1.24,0,0,1-.66-.07.88.88,0,0,1-.39-.35,1.62,1.62,0,0,1-.2-.53,4.17,4.17,0,0,0-.1-.6,3.21,3.21,0,0,1,0-.62,1.45,1.45,0,0,1,.1-.55.9.9,0,0,1,.31-.41,1.17,1.17,0,0,1,.6-.21,1.15,1.15,0,0,1,.55,0,.74.74,0,0,1,.37.28,1.3,1.3,0,0,1,.23.49,5.13,5.13,0,0,1,.13.66v.19l-1.5.18Zm.62-1.16a.9.9,0,0,0-.08-.23.29.29,0,0,0-.14-.13.31.31,0,0,0-.19,0,.41.41,0,0,0-.19.08.54.54,0,0,0-.1.16.74.74,0,0,0,0,.21.89.89,0,0,0,0,.23v.13l.77-.1A1.36,1.36,0,0,0,54.89,92.08Z"/></g><g id="_Group_67" data-name=" Group 67"><path id="_Compound_Path_35" data-name=" Compound Path 35" class="cls-2" d="M56.54,90.89l.08.42h0a1.19,1.19,0,0,1,.21-.42.62.62,0,0,1,.38-.2h.14l.13.78h-.23a.66.66,0,0,0-.2.06.65.65,0,0,0-.16.13.75.75,0,0,0-.1.2.66.66,0,0,0,0,.28L57.13,94l-.76.14L55.81,91Z"/></g><g id="_Group_68" data-name=" Group 68"><path id="_Compound_Path_36" data-name=" Compound Path 36" class="cls-2" d="M58.68,92.79a.51.51,0,0,0,.17.3.37.37,0,0,0,.32.06.44.44,0,0,0,.26-.16.39.39,0,0,0,0-.3.3.3,0,0,0-.13-.21.58.58,0,0,0-.22-.08l-.54,0a1,1,0,0,1-.54-.23.9.9,0,0,1-.28-.5,1.21,1.21,0,0,1,0-.38.7.7,0,0,1,.12-.34.93.93,0,0,1,.28-.28,1.44,1.44,0,0,1,.42-.27,1,1,0,0,1,.81.06.88.88,0,0,1,.39.6v.13l-.67.15a.74.74,0,0,0-.15-.34.39.39,0,0,0-.51.09.3.3,0,0,0,0,.27.37.37,0,0,0,.12.2.51.51,0,0,0,.29.1l.48.06a1,1,0,0,1,.58.21,1,1,0,0,1,.27.53,1.14,1.14,0,0,1,0,.45.82.82,0,0,1-.15.36.91.91,0,0,1-.3.25,1.72,1.72,0,0,1-.43.16,1.87,1.87,0,0,1-.53,0,.8.8,0,0,1-.37-.11.75.75,0,0,1-.25-.28,1.64,1.64,0,0,1-.14-.39V92.8l.66-.16Z"/></g><g id="_Group_69" data-name=" Group 69"><path id="_Compound_Path_37" data-name=" Compound Path 37" class="cls-2" d="M60.45,88.87l.19.67-.74.21-.19-.68Zm.29,1L61.61,93l-.74.21L60,90.13Z"/></g><g id="_Group_70" data-name=" Group 70"><path id="_Compound_Path_38" data-name=" Compound Path 38" class="cls-2" d="M61.86,88.62l.28.87.4-.13.17.53-.42.13.53,1.66a.56.56,0,0,0,.13.24.24.24,0,0,0,.23,0h.16l.18.54-.23.09-.24.08a1.55,1.55,0,0,1-.36.08.35.35,0,0,1-.24-.06.55.55,0,0,1-.18-.22,2.39,2.39,0,0,1-.15-.37l-.58-1.8-.37.12L61,89.84l.37-.12-.28-.87Z"/></g><g id="_Group_71" data-name=" Group 71"><path id="_Compound_Path_39" data-name=" Compound Path 39" class="cls-2" d="M64.24,92.63a.35.35,0,0,0,.24-.22.62.62,0,0,0,0-.33l-1.94-2.72.75-.28L64.48,91h0l-.42-2.22.72-.27.38,3.06c0,.22,0,.45,0,.67a1.61,1.61,0,0,1-.06.44.64.64,0,0,1-.22.27,2.09,2.09,0,0,1-.4.19l-.29.11L64,92.67Z"/></g><g id="_Group_72" data-name=" Group 72"><path id="_Compound_Path_40" data-name=" Compound Path 40" class="cls-2" d="M66.28,88.49,66,88l.36-.16-.16-.33a.88.88,0,0,1-.1-.35.48.48,0,0,1,0-.29.62.62,0,0,1,.17-.22,1.67,1.67,0,0,1,.28-.18c.13,0,.25-.11.38-.15l.25.52h-.14a.52.52,0,0,0-.18.15.26.26,0,0,0,0,.21l.12.25.4-.19.24.51-.4.19,1.13,2.4-.7.32-1.06-2.3Z"/></g><g id="_Group_73" data-name=" Group 73"><path id="_Compound_Path_41" data-name=" Compound Path 41" class="cls-2" d="M68.06,88a1.51,1.51,0,0,1-.07-.56,1,1,0,0,1,.16-.46,1.39,1.39,0,0,1,.44-.36,1.37,1.37,0,0,1,.55-.18.86.86,0,0,1,.47.11,1.49,1.49,0,0,1,.41.38,4.18,4.18,0,0,1,.4.63,3.31,3.31,0,0,1,.29.67,1.46,1.46,0,0,1,.07.55.83.83,0,0,1-.17.45,1.21,1.21,0,0,1-.43.35,1.57,1.57,0,0,1-.55.19.85.85,0,0,1-.47-.1,1.49,1.49,0,0,1-.41-.38,3.65,3.65,0,0,1-.4-.62A4,4,0,0,1,68.06,88Zm1.19.7a1.94,1.94,0,0,0,.21.29,1.07,1.07,0,0,0,.22.15.33.33,0,0,0,.24,0,.31.31,0,0,0,.16-.38,2.94,2.94,0,0,0-.33-.8,2.55,2.55,0,0,0-.49-.72.32.32,0,0,0-.41-.08.27.27,0,0,0-.15.18.39.39,0,0,0,0,.26,2,2,0,0,0,.12.34l.2.4C69.09,88.49,69.18,88.59,69.25,88.71Z"/></g><g id="_Group_74" data-name=" Group 74"><path id="_Compound_Path_42" data-name=" Compound Path 42" class="cls-2" d="M70.54,85.59l.23.36h0a1.48,1.48,0,0,1,0-.47.67.67,0,0,1,.27-.33h.13l.41.67-.11.06-.1.06a.65.65,0,0,0-.16.13.4.4,0,0,0-.1.18.41.41,0,0,0,0,.22.64.64,0,0,0,.1.26l1,1.64-.66.4L69.94,86Z"/></g><g id="_Group_75" data-name=" Group 75"><path id="_Compound_Path_43" data-name=" Compound Path 43" class="cls-2" d="M72.62,83l1,1.31.75-.56-1-1.31L74,82l2.53,3.41-.64.48-1.12-1.48-.75.55,1.12,1.52-.64.47L72,83.48Z"/></g><g id="_Group_76" data-name=" Group 76"><path id="_Compound_Path_44" data-name=" Compound Path 44" class="cls-2" d="M76.75,83.61a1.8,1.8,0,0,0,.19.2l.2.14a.46.46,0,0,0,.2,0,.24.24,0,0,0,.18-.07.29.29,0,0,0,.12-.29,1.4,1.4,0,0,0-.2-.43l.52-.44a1.4,1.4,0,0,1,.34.83,1,1,0,0,1-.42.74,1.35,1.35,0,0,1-.59.31.85.85,0,0,1-.52-.08,2.15,2.15,0,0,1-.46-.33c-.14-.15-.28-.29-.41-.45a3.59,3.59,0,0,1-.37-.5,1.64,1.64,0,0,1-.22-.51,1.1,1.1,0,0,1,0-.51,1.2,1.2,0,0,1,.38-.51,1.06,1.06,0,0,1,.49-.26.76.76,0,0,1,.47,0,1.67,1.67,0,0,1,.46.28c.15.14.31.3.47.48l.11.15-1.15,1Zm-.12-1.31a.9.9,0,0,0-.2-.14.28.28,0,0,0-.18,0,.37.37,0,0,0-.18.08.31.31,0,0,0-.1.36.7.7,0,0,0,.08.2c0,.07.09.13.13.19l.09.09.59-.5A3.11,3.11,0,0,0,76.63,82.3Z"/></g><g id="_Group_77" data-name=" Group 77"><path id="_Compound_Path_45" data-name=" Compound Path 45" class="cls-2" d="M77.47,81.57a1.34,1.34,0,0,1-.27-.4.92.92,0,0,1,0-.37.93.93,0,0,1,.13-.35,1.35,1.35,0,0,1,.26-.32,1.67,1.67,0,0,1,.45-.34.67.67,0,0,1,.37-.08.66.66,0,0,1,.33.12,1.53,1.53,0,0,1,.31.26l1.17,1.21a3.07,3.07,0,0,0,.26.25,1.16,1.16,0,0,0,.24.14l-.53.5L80,82.12l-.14-.1h0a.66.66,0,0,1,0,.44,1.26,1.26,0,0,1-.27.37.71.71,0,0,1-.3.18.51.51,0,0,1-.3,0,.81.81,0,0,1-.29-.12,1.27,1.27,0,0,1-.25-.21,1,1,0,0,1-.24-.31.63.63,0,0,1-.1-.3.76.76,0,0,1,0-.3,2.07,2.07,0,0,1,.15-.34l.22-.39a.42.42,0,0,0,.08-.26.37.37,0,0,0-.12-.22.46.46,0,0,0-.26-.15.38.38,0,0,0-.38.38h0a.48.48,0,0,0,.15.28l.06.07-.5.47Zm1.44-.28a1.09,1.09,0,0,1-.08.15.66.66,0,0,0-.11.36.58.58,0,0,0,.16.32.71.71,0,0,0,.27.18.23.23,0,0,0,.25-.06.64.64,0,0,0,.1-.13.84.84,0,0,0,0-.17.61.61,0,0,0,0-.19.62.62,0,0,0-.12-.19L79,81.1A.64.64,0,0,1,78.91,81.29Z"/></g><g id="_Group_78" data-name=" Group 78"><path id="_Compound_Path_46" data-name=" Compound Path 46" class="cls-2" d="M78.54,77.77l3.09,2.93-.52.56L78,78.33Z"/></g><g id="_Group_79" data-name=" Group 79"><path id="_Compound_Path_47" data-name=" Compound Path 47" class="cls-2" d="M79.54,76.8l.69.61.29-.34.42.38-.29.33L82,78.92a.45.45,0,0,0,.24.14.2.2,0,0,0,.2-.11l.06-.07,0-.06.43.37-.16.2-.16.19a1.54,1.54,0,0,1-.26.25.41.41,0,0,1-.24.08.63.63,0,0,1-.27-.1,2.43,2.43,0,0,1-.32-.24l-1.37-1.21-.25.29-.42-.37.25-.29L79,77.38Z"/></g><g id="_Group_80" data-name=" Group 80"><path id="_Compound_Path_48" data-name=" Compound Path 48" class="cls-2" d="M80.32,75.67l1.08.85h0a.77.77,0,0,1,.13-.82.71.71,0,0,1,.51-.31,1,1,0,0,1,.67.28l1.87,1.48-.47.6-1.73-1.39a.63.63,0,0,0-.32-.15.28.28,0,0,0-.23.13c-.17.21-.11.43.16.65l1.67,1.32-.47.6-3.34-2.64Z"/></g><g id="_Group_81" data-name=" Group 81"><path id="_Compound_Path_49" data-name=" Compound Path 49" class="cls-2" d="M85.13,74.25l.24.13a.41.41,0,0,0,.22,0,.37.37,0,0,0,.2-.07.81.81,0,0,0,.18-.19.45.45,0,0,0,.07-.34.51.51,0,0,0-.25-.34.67.67,0,0,0-.23-.1.81.81,0,0,0-.22,0,1.12,1.12,0,0,0-.25.11l-.3.2a2.36,2.36,0,0,1-.42.28,1.44,1.44,0,0,1-.4.13.9.9,0,0,1-.4,0,1.62,1.62,0,0,1-.42-.2,1.24,1.24,0,0,1-.62-.78,1.28,1.28,0,0,1,.22-.93,2.3,2.3,0,0,1,.32-.38,1,1,0,0,1,.38-.21.82.82,0,0,1,.44,0,1.24,1.24,0,0,1,.49.2l.1.06-.41.65a.83.83,0,0,0-.45-.17.36.36,0,0,0-.32.19.39.39,0,0,0-.08.21.54.54,0,0,0,0,.18.33.33,0,0,0,.1.14.53.53,0,0,0,.14.12.57.57,0,0,0,.71,0l.57-.37a2.81,2.81,0,0,1,.39-.19.78.78,0,0,1,.34,0,.81.81,0,0,1,.31,0,2,2,0,0,1,.32.17,1.18,1.18,0,0,1,.63.83,1.55,1.55,0,0,1-.29,1,1.23,1.23,0,0,1-.79.64,1.31,1.31,0,0,1-.92-.24l-.14-.09.43-.68Z"/></g><g id="_Group_82" data-name=" Group 82"><path id="_Compound_Path_50" data-name=" Compound Path 50" class="cls-2" d="M86.07,70.58l-.2,0a.28.28,0,0,0-.18,0,.29.29,0,0,0-.14.13.35.35,0,0,0,.07.45,1.78,1.78,0,0,0,.26.22l.42.25.45.23a2,2,0,0,0,.34.12.45.45,0,0,0,.23,0,.26.26,0,0,0,.16-.15.29.29,0,0,0,0-.33,1.47,1.47,0,0,0-.46-.36l.36-.64a1.51,1.51,0,0,1,.71.7,1,1,0,0,1-.13.92,1.53,1.53,0,0,1-.31.41.76.76,0,0,1-.41.18,1.46,1.46,0,0,1-.55-.07,3.57,3.57,0,0,1-.75-.33,3.85,3.85,0,0,1-.67-.47,1.43,1.43,0,0,1-.33-.47.84.84,0,0,1,0-.47,1.48,1.48,0,0,1,.16-.46,1,1,0,0,1,.68-.54,1.45,1.45,0,0,1,.93.2l-.36.64Z"/></g><g id="_Group_83" data-name=" Group 83"><path id="_Compound_Path_51" data-name=" Compound Path 51" class="cls-2" d="M85.14,68l.63.32-.34.68-.63-.31Zm1,.49L89,69.87l-.34.69-2.87-1.42Z"/></g><g id="_Group_84" data-name=" Group 84"><path id="_Compound_Path_52" data-name=" Compound Path 52" class="cls-2" d="M88.43,68.2l.26.1h.25a.34.34,0,0,0,.2,0,.27.27,0,0,0,.13-.13.31.31,0,0,0,0-.32,1.12,1.12,0,0,0-.36-.29l.27-.63a1.29,1.29,0,0,1,.67.59,1,1,0,0,1,0,.85,1.26,1.26,0,0,1-.4.54,1,1,0,0,1-.5.16,1.49,1.49,0,0,1-.55-.1c-.2-.07-.39-.14-.57-.22a4.14,4.14,0,0,1-.55-.29,1.44,1.44,0,0,1-.42-.36.93.93,0,0,1-.2-.48,1.32,1.32,0,0,1,.12-.62,1.06,1.06,0,0,1,.33-.45.83.83,0,0,1,.43-.18,1.42,1.42,0,0,1,.54,0,4.29,4.29,0,0,1,.63.23l.17.08-.6,1.38Zm-.68-1.12a1,1,0,0,0-.24,0,.28.28,0,0,0-.18,0,.48.48,0,0,0-.12.16.34.34,0,0,0,0,.2.56.56,0,0,0,.09.17l.16.14.2.1.12.06.31-.72-.34-.11Z"/></g><g id="_Group_85" data-name=" Group 85"><path id="_Compound_Path_53" data-name=" Compound Path 53" class="cls-2" d="M87.54,65.05l.35.13h0a.78.78,0,0,1-.17-.87.74.74,0,0,1,.39-.46,1,1,0,0,1,.72.06l2.24.81-.26.72-2.08-.76a.56.56,0,0,0-.36,0,.25.25,0,0,0-.17.2c-.1.25,0,.44.36.56l2,.73-.26.71-3-1.09Z"/></g><g id="_Group_86" data-name=" Group 86"><path id="_Compound_Path_54" data-name=" Compound Path 54" class="cls-2" d="M89.54,62.11h-.21a.64.64,0,0,0-.18.06.25.25,0,0,0-.1.15.33.33,0,0,0,0,.24.49.49,0,0,0,.16.19,1.77,1.77,0,0,0,.31.15l.46.15.49.13h.36a.4.4,0,0,0,.22-.06.28.28,0,0,0,.12-.19.28.28,0,0,0-.09-.32,1.34,1.34,0,0,0-.54-.25l.21-.7a1.46,1.46,0,0,1,.85.52,1,1,0,0,1,.07.93,1.37,1.37,0,0,1-.21.46.78.78,0,0,1-.36.26,1.33,1.33,0,0,1-.56.06,3.57,3.57,0,0,1-.79-.16,3,3,0,0,1-.76-.31,1.34,1.34,0,0,1-.43-.39.71.71,0,0,1-.15-.44,1.35,1.35,0,0,1,.06-.49,1,1,0,0,1,.54-.67,1.43,1.43,0,0,1,1,0l-.21.71A1.15,1.15,0,0,0,89.54,62.11Z"/></g><g id="_Group_87" data-name=" Group 87"><path id="_Compound_Path_55" data-name=" Compound Path 55" class="cls-2" d="M91,60.63a1.28,1.28,0,0,0,.27,0h.27a.46.46,0,0,0,.19-.08.27.27,0,0,0,.1-.16.32.32,0,0,0-.08-.31,1.41,1.41,0,0,0-.42-.22l.15-.67a1.46,1.46,0,0,1,.77.46,1,1,0,0,1,.11.85,1.25,1.25,0,0,1-.29.6,1,1,0,0,1-.46.25,1.75,1.75,0,0,1-.56,0l-.6-.11q-.3-.07-.6-.18a1.44,1.44,0,0,1-.48-.28,1,1,0,0,1-.28-.43,1.35,1.35,0,0,1,.24-1.14.87.87,0,0,1,.39-.26,1.63,1.63,0,0,1,.54,0,5,5,0,0,1,.66.1h.18l-.33,1.48Zm-.88-1h-.24a.38.38,0,0,0-.17.08.32.32,0,0,0-.1.18.31.31,0,0,0,0,.19.26.26,0,0,0,.12.15.42.42,0,0,0,.18.11l.22.07h.12l.17-.76h-.3Z"/></g><g id="_Group_88" data-name=" Group 88"><path id="_Compound_Path_56" data-name=" Compound Path 56" class="cls-2" d="M91.78,58.22a.53.53,0,0,0,.35,0A.35.35,0,0,0,92.3,58a.39.39,0,0,0,0-.3A.36.36,0,0,0,92,57.5a.33.33,0,0,0-.24,0,.55.55,0,0,0-.16.18l-.3.49a1,1,0,0,1-.41.42.93.93,0,0,1-.57.06,1.09,1.09,0,0,1-.36-.12.78.78,0,0,1-.27-.24,1,1,0,0,1-.15-.37,1.46,1.46,0,0,1,0-.51,1.11,1.11,0,0,1,.36-.72.9.9,0,0,1,.71-.13h.13l-.11.68a.62.62,0,0,0-.38,0,.31.31,0,0,0-.16.24.39.39,0,0,0,0,.26.3.3,0,0,0,.24.15.28.28,0,0,0,.22,0,.5.5,0,0,0,.2-.23l.24-.43a1.14,1.14,0,0,1,.42-.45,1.11,1.11,0,0,1,.6-.05,1.06,1.06,0,0,1,.42.15.9.9,0,0,1,.27.28.81.81,0,0,1,.12.37,1.69,1.69,0,0,1,0,.45,1.56,1.56,0,0,1-.15.52.81.81,0,0,1-.25.3.7.7,0,0,1-.34.12,1.55,1.55,0,0,1-.43,0h-.11l.11-.67Z"/></g></g><g id="_Group_89" data-name=" Group 89"><path id="_Compound_Path_57" data-name=" Compound Path 57" class="cls-3" d="M49.36,21.48A26.34,26.34,0,0,1,60.67,46,25.84,25.84,0,0,1,74.13,66.21a24.19,24.19,0,0,1-24.77-1.28,24.19,24.19,0,0,1-24.77,1.28A25.84,25.84,0,0,1,38.05,46,26.34,26.34,0,0,1,49.36,21.48m0-4.32-2,1.33A29.56,29.56,0,0,0,34.29,43.21V44A29.38,29.38,0,0,0,21,65.84l-.26,2.41,2.15,1.14a27.82,27.82,0,0,0,26.45-.25,27.82,27.82,0,0,0,26.45.25l2.15-1.14-.26-2.41A29.38,29.38,0,0,0,64.37,44v-.82A29.56,29.56,0,0,0,51.3,18.49l-2-1.33Z"/></g><g id="_Group_90" data-name=" Group 90"><g id="_Group_91" data-name=" Group 91"><g id="_Group_92" data-name=" Group 92"><path id="_Compound_Path_58" data-name=" Compound Path 58" class="cls-4" d="M33.47,80.08l-1.64-.94a2.69,2.69,0,0,1,.27-.32,2.35,2.35,0,0,1,.32-.23,2.23,2.23,0,0,1,.43-.16,5.07,5.07,0,0,1,.56-.13.85.85,0,0,0,.31-.09A.49.49,0,0,0,33.9,78a.61.61,0,0,0,.05-.12V77.8a.21.21,0,0,0,0-.11.43.43,0,0,0-.1-.09c-.18-.1-.35,0-.52.18l-.45-.37a1.27,1.27,0,0,1,.27-.25,1.3,1.3,0,0,1,.32-.14,1,1,0,0,1,.34,0,.92.92,0,0,1,.33.11,1.13,1.13,0,0,1,.27.22.61.61,0,0,1,.14.29.62.62,0,0,1,0,.33,1.14,1.14,0,0,1-.13.35,1.15,1.15,0,0,1-.92.53l-.41.08a1.42,1.42,0,0,0-.29.1h0l1,.54Z"/></g><g id="_Group_93" data-name=" Group 93"><path id="_Compound_Path_59" data-name=" Compound Path 59" class="cls-4" d="M36.47,80a2.55,2.55,0,0,1-.33.52,1.33,1.33,0,0,1-.37.34,1,1,0,0,1-.41.15.88.88,0,0,1-.42-.08.72.72,0,0,1-.33-.29.91.91,0,0,1-.14-.42,2.17,2.17,0,0,1,0-.51,2.76,2.76,0,0,1,.19-.55A2.08,2.08,0,0,1,35,78.6a1.24,1.24,0,0,1,.38-.34.84.84,0,0,1,.41-.14.74.74,0,0,1,.41.08.68.68,0,0,1,.32.26,1,1,0,0,1,.15.4,1.46,1.46,0,0,1,0,.51A3,3,0,0,1,36.47,80Zm-.55-.25c.26-.55.27-.88,0-1s-.48.11-.74.66-.27.89,0,1S35.66,80.25,35.92,79.7Z"/></g><g id="_Group_94" data-name=" Group 94"><path id="_Compound_Path_60" data-name=" Compound Path 60" class="cls-4" d="M38.8,80.85a2.38,2.38,0,0,1-.28.55,2,2,0,0,1-.35.37.81.81,0,0,1-.39.17.75.75,0,0,1-.42,0,.78.78,0,0,1-.36-.26,1.15,1.15,0,0,1-.17-.41,1.46,1.46,0,0,1,0-.51,2.6,2.6,0,0,1,.42-1.1,1.54,1.54,0,0,1,.35-.37.88.88,0,0,1,.4-.17,1,1,0,0,1,.42,0,.73.73,0,0,1,.33.24,1,1,0,0,1,.19.39,1.46,1.46,0,0,1,0,.51A2.41,2.41,0,0,1,38.8,80.85Zm-.56-.21c.21-.57.2-.9,0-1s-.47.15-.68.72-.21.91,0,1S38,81.22,38.24,80.64Z"/></g><g id="_Group_95" data-name=" Group 95"><path id="_Compound_Path_61" data-name=" Compound Path 61" class="cls-4" d="M41,82a1.18,1.18,0,0,1-.19.39,1,1,0,0,1-.29.25.88.88,0,0,1-.35.1.9.9,0,0,1-.4,0,.84.84,0,0,1-.27-.13.79.79,0,0,1-.21-.24,1,1,0,0,1-.14-.32,1.34,1.34,0,0,1,0-.4l.55.09a.43.43,0,0,0,0,.16.38.38,0,0,0,0,.15l.09.11a.27.27,0,0,0,.14.07.37.37,0,0,0,.29,0,.54.54,0,0,0,.2-.31.61.61,0,0,0,0-.19.43.43,0,0,0,0-.16.38.38,0,0,0-.09-.13.35.35,0,0,0-.13-.08.51.51,0,0,0-.46.11l-.43-.17L40,79.85l1.37.39-.15.54-1-.28h0v.21l-.06.12h.35a.69.69,0,0,1,.3.17.76.76,0,0,1,.2.27.85.85,0,0,1,.08.35A1.18,1.18,0,0,1,41,82Z"/></g></g><g id="_Group_96" data-name=" Group 96"><g id="_Group_97" data-name=" Group 97"><path id="_Path_21" data-name=" Path 21" class="cls-5" d="M65.19,76.24a5.67,5.67,0,0,0,1.64,2l.06.76a3.93,3.93,0,0,1-1.73-1.74l-.61.38c-.09-.26-.18-.52-.26-.77A7.23,7.23,0,0,0,65.19,76.24Z"/></g><g id="_Group_98" data-name=" Group 98"><path id="_Path_22" data-name=" Path 22" class="cls-5" d="M62.71,77.59l.94-.49c.07.25.13.5.19.75l-.54.29a2.57,2.57,0,0,1,.75,2.32,8.44,8.44,0,0,0-1.29-2C62.74,78.17,62.73,77.88,62.71,77.59Z"/></g><g id="_Group_99" data-name=" Group 99"><path id="_Path_23" data-name=" Path 23" class="cls-5" d="M61.42,78.24c.08.19.14.38.21.57-.09.18-.17.36-.26.55l.66.24c-.08.38-.19.74-.28,1.12.3-.1.59-.22.88-.33a7.13,7.13,0,0,1-.14.89c-.37.15-.73.29-1.11.41-.31-.45,0-1,.09-1.46-.22-.11-.44-.22-.65-.34A4.68,4.68,0,0,1,61.42,78.24Z"/></g><g id="_Group_100" data-name=" Group 100"><path id="_Path_24" data-name=" Path 24" class="cls-5" d="M58.9,79.17a3.3,3.3,0,0,1,.84,3.08,7.46,7.46,0,0,0-1.13-2.32C58.7,79.67,58.8,79.42,58.9,79.17Z"/></g></g></g><g id="_Group_101" data-name=" Group 101"><g id="_Group_102" data-name=" Group 102"><path id="_Path_25" data-name=" Path 25" class="cls-1" d="M47.85,26.9a.5.5,0,0,1,0,.5v-.11a.19.19,0,0,0-.07-.14,1.79,1.79,0,0,0-.07.61c-.08,0,0-.18-.08-.14s0,.21,0,.32a1.83,1.83,0,0,1-.09-1.58,3.8,3.8,0,0,1,.65-.79s.11-.14,0-.14a.23.23,0,0,0-.22.18l-.07-.07c0,.1-.11.21-.14.32s0-.14,0-.14a2.31,2.31,0,0,0-.14.32c0,.11,0-.14,0-.11s-.11.25-.14.4v-.15a1.07,1.07,0,0,0-.07.29V26.4a.47.47,0,0,0-.07.36c-.07,0,0-.14-.07-.14s-.07.25-.11.39v-.25a1.21,1.21,0,0,0-.11.32v-.29c-.07.11,0,.26,0,.36a1.64,1.64,0,0,1,0-.93c.08-.15.16-.29.25-.43a2,2,0,0,1,.4-.36c.22-.18.5-.22.68-.43-.07-.08-.18,0-.25,0a.23.23,0,0,1-.07.07V25a.17.17,0,0,0-.14.07c0,.07,0-.07,0-.07l-.14.11a.09.09,0,0,0,0-.07.14.14,0,0,0-.14.14l-.07-.07a.15.15,0,0,0-.07.14v-.07a.17.17,0,0,0-.07.14h0a.52.52,0,0,0-.07.21.09.09,0,0,0,0-.07c-.08.07,0,.18-.08.25a.77.77,0,0,1,.51-.93,1.54,1.54,0,0,1,1.26,0,.09.09,0,0,0,0-.07c0-.11-.14-.32-.29-.18a.11.11,0,0,1,0-.11c-.07-.11-.18,0-.25,0h0c-.07-.11-.14,0-.21,0h-.07c-.07,0-.14,0-.14.15v-.15s-.14.19-.21.26a.29.29,0,0,1,.14-.36,1.14,1.14,0,0,1,1-.15.92.92,0,0,1,.43.44,1.59,1.59,0,0,0,.14-.47.11.11,0,0,0,0,.11c.07-.15,0-.33.11-.47.07.14,0,.32.11.47a.21.21,0,0,0,0-.11,2.54,2.54,0,0,0,.14.47.84.84,0,0,1,.58-.47c.4-.07,1,0,1,.54-.08-.07-.11-.22-.22-.26s0,.11,0,.15-.11-.11-.15-.15a0,0,0,0,0-.07,0v.07c0,.07-.15-.11-.22,0s0,0,0,.07a.57.57,0,0,0-.22-.07c-.07,0,0,.11,0,.14s-.11,0-.14,0-.22.28-.18.28a1.9,1.9,0,0,1,1.33,0,.91.91,0,0,1,.43.32,1.15,1.15,0,0,1,.07.61c-.07-.07,0-.18-.07-.25s0,0,0,.07c0-.14-.11-.21-.18-.32s0,0,0,.07a.19.19,0,0,0-.07-.14l-.08.07c0-.11-.11-.11-.14-.14a.09.09,0,0,0,0,.07l-.11-.11c-.07,0-.1.07-.17,0s-.08,0-.08.07l-.07-.07c-.07.07-.18,0-.25,0,.32.28.79.39,1.08.79a1.58,1.58,0,0,1,.29,1.36V27c-.07.08,0,.18,0,.29a1.21,1.21,0,0,0-.11-.32c-.08.07,0,.18,0,.25a.49.49,0,0,0-.11-.39c-.11-.1,0,.1-.07.14a.66.66,0,0,0-.07-.36c-.07-.11,0,0,0,.07s0-.25-.07-.29,0,.11,0,.15c0-.15,0-.33-.14-.4s0,.07,0,.11,0-.29-.14-.32,0,.1,0,.14a1.63,1.63,0,0,1-.15-.32l-.07.07a.34.34,0,0,0-.22-.22v.11c.21.29.5.5.68.79a1.85,1.85,0,0,1-.07,1.62c0-.11.11-.29,0-.32s0,.1-.07.14a1.79,1.79,0,0,0-.07-.61.16.16,0,0,0-.08.14v.11a.83.83,0,0,1,.07-.58.52.52,0,0,0-.07-.21.24.24,0,0,0-.07.14,1.06,1.06,0,0,0-.07-.46c-.07,0,0,.1,0,.14s0-.25-.07-.32,0,.1-.07.14,0-.25-.07-.32,0,.1,0,.14,0-.29-.14-.32,0,.1,0,.14H51V26h-.07s.18.11.22.22.1.14.1.25a.13.13,0,0,0-.18,0l0,0c.18.07.36.18.32.39a.26.26,0,0,0-.14-.18H51.1s.29.28.25.5a.19.19,0,0,0-.11-.18h-.07a.91.91,0,0,1,.15.68v0h0c-.07.11,0,.18,0,.29a.45.45,0,0,1-.07.29v-.36a1.21,1.21,0,0,0-.07.5v-.07s0,.14-.07.18a4.88,4.88,0,0,0-.07-.76h.07v-.22s0,.14-.07.18c0-.14,0-.29-.11-.32s0,.1-.07.14-.07-.11-.14-.18a24.57,24.57,0,0,0,0,3.64c0,.18.11.36.07.54a.36.36,0,0,0,0,.25.52.52,0,0,0,.11.32c0,.15-.11.29-.07.44a4.15,4.15,0,0,0,.4.75H48.64c.14-.29.39-.54.36-.86,0-.11-.07-.22,0-.33.18-.28,0-.54.07-.86a.48.48,0,0,0,.07-.21,28.24,28.24,0,0,0,0-3.68c-.07,0,0,.11,0,.14s-.14,0-.18,0,0,0,0-.07-.08,0-.11,0a.37.37,0,0,0,0,.29c-.07,0,0-.22-.07-.18s0,.14,0,.22,0,0,.08,0a6.53,6.53,0,0,0-.08.76c-.07,0,0-.15-.07-.18s0,0,0,.07a1,1,0,0,0-.08-.5c-.07.1,0,.25,0,.36a.45.45,0,0,0-.07-.29c-.07-.11.07-.18,0-.29h0v0A.7.7,0,0,1,48.7,27v-.07a1.22,1.22,0,0,0-.15.18.68.68,0,0,1,.25-.5c.14-.14-.07,0-.1,0a.28.28,0,0,0-.15.18c0-.21.15-.32.33-.39a.14.14,0,0,0-.2,0l0,0A.85.85,0,0,1,49,26,.21.21,0,0,0,48.8,26c.08,0,0-.11.08-.14s0,0-.08,0a.47.47,0,0,0-.18.36V26a1.28,1.28,0,0,0-.08.32c0,.11,0-.14-.07-.14s0,.21-.07.32v-.14c-.08.14,0,.32-.08.46a.17.17,0,0,0-.07-.14c0,.11-.11.18,0,.29Z"/></g><g id="_Group_103" data-name=" Group 103"><rect id="_Rectangle_" data-name=" Rectangle " class="cls-1" x="48.48" y="33.35" width="1.75" height="0.3"/></g><g id="_Group_104" data-name=" Group 104"><rect id="_Rectangle_2" data-name=" Rectangle 2" class="cls-1" x="49.06" y="33.78" width="0.6" height="0.27"/></g></g><g id="_Group_105" data-name=" Group 105"><g id="_Group_106" data-name=" Group 106"><path id="_Path_26" data-name=" Path 26" class="cls-1" d="M52.59,37.22a.38.38,0,0,0-.37.3m0,0A1.16,1.16,0,0,1,51.06,37a.28.28,0,0,1,0-.22,1.5,1.5,0,0,1,.19-.32l.49-.6-.67.53a.31.31,0,0,1-.43-.05c-4.52-5.4-8.93-3.46-8.93-3.46,4.43-.76,7.55,2.52,8.52,3.71a.45.45,0,0,1,.08.43.88.88,0,0,1-.19.34l-.49.61.6-.5a1.35,1.35,0,0,1,.26-.15.25.25,0,0,1,.3.07,1.72,1.72,0,0,0,1.27.68,1.23,1.23,0,0,0,.74-.21.41.41,0,0,0,.19-.33.38.38,0,0,0-.4-.34Z"/></g><g id="_Group_107" data-name=" Group 107"><path id="_Path_27" data-name=" Path 27" class="cls-1" d="M46.13,37.22a.38.38,0,0,1,.37.3m0,0A1.16,1.16,0,0,0,47.66,37a.28.28,0,0,0,0-.22,1.5,1.5,0,0,0-.19-.32l-.49-.6.67.53a.31.31,0,0,0,.43-.05C52.6,31,57,32.91,57,32.91c-4.43-.76-7.55,2.52-8.52,3.71a.45.45,0,0,0-.09.43,1,1,0,0,0,.2.34l.49.61-.6-.5a1.35,1.35,0,0,0-.26-.15.25.25,0,0,0-.3.07,1.72,1.72,0,0,1-1.27.68,1.23,1.23,0,0,1-.74-.21.41.41,0,0,1-.19-.33.38.38,0,0,1,.4-.34Z"/></g></g><g id="_Group_108" data-name=" Group 108"><g id="_Group_109" data-name=" Group 109"><path id="_Compound_Path_62" data-name=" Compound Path 62" class="cls-4" d="M49.36,52.7h0a.15.15,0,0,1-.1-.14l-.19-7a.11.11,0,0,1,0-.08,2.34,2.34,0,0,1,3.17-.64c1.77.8,2.55.3,2.55.29a.16.16,0,0,1,.22,0,.14.14,0,0,1,0,.06l.73,7.12a.15.15,0,0,1-.11.16A5.16,5.16,0,0,1,52.35,52a2.47,2.47,0,0,0-2.9.62A.14.14,0,0,1,49.36,52.7Zm2-1.21a2.6,2.6,0,0,1,1.16.27,5.27,5.27,0,0,0,2.92.53l-.7-6.78a3.46,3.46,0,0,1-2.63-.37c-1.79-.82-2.63.27-2.77.48l.18,6.59a2.9,2.9,0,0,1,1.82-.72Z"/></g><g id="_Group_110" data-name=" Group 110"><path id="_Compound_Path_63" data-name=" Compound Path 63" class="cls-4" d="M56.54,53.75a.16.16,0,0,1-.11,0l-1-1.2a.11.11,0,0,1,0-.08L54.7,45.3a.16.16,0,0,1,.13-.17.14.14,0,0,1,.16.1l.58,1.4h0l1.11,6.91a.14.14,0,0,1-.09.16Zm-.81-1.4.58.72-1-6.34-.18-.44Z"/></g><g id="_Group_111" data-name=" Group 111"><path id="_Path_28" data-name=" Path 28" class="cls-4" d="M50.13,54a.17.17,0,0,1-.13-.07l-.77-1.3.26-.16.64,1.09A1.41,1.41,0,0,1,51.88,53a13,13,0,0,0,4.65.42v.3a13.28,13.28,0,0,1-4.78-.43,1.13,1.13,0,0,0-1.5.56v0a.14.14,0,0,1-.13.09Z"/></g><g id="_Group_112" data-name=" Group 112"><path id="_Path_29" data-name=" Path 29" class="cls-4" d="M49.25,52.65a2.47,2.47,0,0,0-2.9-.62,5.16,5.16,0,0,1-3.25.52.15.15,0,0,1-.11-.16l.73-7.12a.16.16,0,0,1,.18-.13l.06,0s.78.51,2.55-.29a2.42,2.42,0,0,1,2-.19,1.55,1.55,0,0,1,.82.85l-.28.1a1.33,1.33,0,0,0-.66-.68,2.21,2.21,0,0,0-1.74.19,3.46,3.46,0,0,1-2.63.37l-.7,6.78a5.27,5.27,0,0,0,2.92-.53,2.82,2.82,0,0,1,3.25.69Z"/></g><g id="_Group_113" data-name=" Group 113"><path id="_Compound_Path_64" data-name=" Compound Path 64" class="cls-4" d="M42.18,53.75h-.06a.14.14,0,0,1-.09-.16l1.11-6.91h0l.58-1.4a.15.15,0,0,1,.29.07l-.73,7.12a.11.11,0,0,1,0,.08l-1,1.2Zm1.26-7-1,6.34.58-.72.63-6.06Z"/></g><g id="_Group_114" data-name=" Group 114"><path id="_Path_30" data-name=" Path 30" class="cls-4" d="M48.59,54h0a.14.14,0,0,1-.13-.09,1.15,1.15,0,0,0-1.5-.6h0a13.28,13.28,0,0,1-4.78.43v-.3A13,13,0,0,0,46.82,53a1.41,1.41,0,0,1,1.75.53l.64-1.09.26.16-.77,1.3A.19.19,0,0,1,48.59,54Z"/></g><g id="_Group_115" data-name=" Group 115"><rect id="_Path_31" data-name=" Path 31" class="cls-4" x="48.59" y="53.7" width="1.54" height="0.3"/></g></g><g id="_Group_116" data-name=" Group 116"><path id="_Compound_Path_65" data-name=" Compound Path 65" class="cls-4" d="M38.34,57.17a1,1,0,1,1-1,1,1,1,0,0,1,1-1m0-.3a1.28,1.28,0,1,0,1.3,1.28,1.28,1.28,0,0,0-1.3-1.28Z"/></g><g id="_Group_117" data-name=" Group 117"><path id="_Compound_Path_66" data-name=" Compound Path 66" class="cls-4" d="M38.12,57.36a.65.65,0,1,1,.16,1.29h-.16A.65.65,0,1,1,38,57.36h.16m0-.3a1,1,0,1,0,1,.95h0A1,1,0,0,0,38.12,57.06Z"/></g><g id="_Group_118" data-name=" Group 118"><g id="_Group_119" data-name=" Group 119"><path id="_Path_32" data-name=" Path 32" class="cls-4" d="M30.2,67.12h-.27A2.61,2.61,0,0,1,27.32,65a2.94,2.94,0,0,1,.51-2.13,4.7,4.7,0,0,1,3.31-1.74,12.74,12.74,0,0,0,6.12-2.42l.3.33a12.9,12.9,0,0,1-6.35,2.53,4.26,4.26,0,0,0-3,1.55,2.56,2.56,0,0,0-.44,1.82c0,.08.18,1.58,2.22,1.78a2.55,2.55,0,0,0,2.11-.91,4.25,4.25,0,0,0,1.18-3.12l.45-.08a4.69,4.69,0,0,1-1.3,3.5A3,3,0,0,1,30.2,67.12Z"/></g></g><g id="_Group_120" data-name=" Group 120"><circle id="_Path_33" data-name=" Path 33" class="cls-4" cx="38.1" cy="57.94" r="0.35"/></g><g id="_Group_121" data-name=" Group 121"><g id="_Group_122" data-name=" Group 122"><g id="_Group_123" data-name=" Group 123"><path id="_Path_34" data-name=" Path 34" class="cls-4" d="M33,59.5l-.29-.08a14.27,14.27,0,0,1,1.74-4.1c.21-.34.44-.51.69-.5s.66.47.67.48l-.26.15c0-.09-.22-.33-.41-.33h0c-.17,0-.32.19-.43.35A14.19,14.19,0,0,0,33,59.5Z"/></g></g><g id="_Group_124" data-name=" Group 124"><ellipse id="_Path_35" data-name=" Path 35" class="cls-4" cx="36.12" cy="55.85" rx="0.42" ry="0.48" transform="matrix(0.55, -0.84, 0.84, 0.55, -30.39, 55.42)"/></g><g id="_Group_125" data-name=" Group 125"><ellipse id="_Path_36" data-name=" Path 36" class="cls-4" cx="35.82" cy="55.56" rx="0.36" ry="0.41" transform="matrix(0.55, -0.84, 0.84, 0.55, -30.29, 55.03)"/></g><g id="_Group_126" data-name=" Group 126"><g id="_Group_127" data-name=" Group 127"><path id="_Path_37" data-name=" Path 37" class="cls-4" d="M35.08,59.73h-.3c0-3.8-.56-4.46-.81-4.56a.32.32,0,0,0-.32.07L33.44,55a.62.62,0,0,1,.65-.14C34.76,55.17,35.09,56.8,35.08,59.73Z"/></g></g><g id="_Group_128" data-name=" Group 128"><ellipse id="_Path_38" data-name=" Path 38" class="cls-4" cx="33.3" cy="55.36" rx="0.45" ry="0.25" transform="translate(-28.7 37.2) rotate(-42.65)"/></g><g id="_Group_129" data-name=" Group 129"><ellipse id="_Path_39" data-name=" Path 39" class="cls-4" cx="32.96" cy="55.72" rx="0.41" ry="0.36" transform="translate(-31.45 49.14) rotate(-53.56)"/></g></g><g id="_Group_130" data-name=" Group 130"><path id="_Path_40" data-name=" Path 40" class="cls-6" d="M35.24,61.17l.14-1.11a.44.44,0,0,0-.39-.5.47.47,0,0,0-.5.39l-.14,1.11a1,1,0,0,1-.31.66.54.54,0,0,1-.45.18c-.35,0-.59-.5-.53-1l.14-1.11a.45.45,0,0,0-.43-.47.46.46,0,0,0-.46.36l-.14,1.11a2.34,2.34,0,0,0,0,.79l2.46.77A1.9,1.9,0,0,0,35.24,61.17Z"/><path id="_Compound_Path_67" data-name=" Compound Path 67" class="cls-6" d="M34.72,62.52,32.1,61.7v-.08a2.44,2.44,0,0,1-.06-.85l.14-1.11a.55.55,0,0,1,.23-.39.58.58,0,0,1,.44-.13.6.6,0,0,1,.52.67l-.14,1.11a1,1,0,0,0,.1.58.38.38,0,0,0,.3.25.44.44,0,0,0,.33-.14.87.87,0,0,0,.26-.57l.14-1.11a.59.59,0,0,1,.23-.4.63.63,0,0,1,.44-.12.6.6,0,0,1,.52.67l-.14,1.11a2.12,2.12,0,0,1-.61,1.27ZM34,62l.68.21a1.88,1.88,0,0,0,.46-1l.13-1.11a.29.29,0,0,0-.25-.33h0a.29.29,0,0,0-.22.06.31.31,0,0,0-.11.2l-.14,1.11a1.25,1.25,0,0,1-.35.75A1.18,1.18,0,0,1,34,62Zm-1.61-.51.72.23v0a1.43,1.43,0,0,1-.13-.76l.14-1.11a.29.29,0,0,0-.25-.33h0a.29.29,0,0,0-.22.06.31.31,0,0,0-.11.2l-.14,1.11A1.78,1.78,0,0,0,32.35,61.46Z"/></g><g id="_Group_131" data-name=" Group 131"><g id="_Group_132" data-name=" Group 132"><path id="_Path_41" data-name=" Path 41" class="cls-7" d="M61.6,60.36l2.25-2.3a2.62,2.62,0,0,0-.55-1.25l-3,3.11A4.64,4.64,0,0,0,61.6,60.36Z"/></g><g id="_Group_133" data-name=" Group 133"><path id="_Path_42" data-name=" Path 42" class="cls-7" d="M66,65.84l4.07-4.16a2.72,2.72,0,0,0-1-.74L65,65.13A2.72,2.72,0,0,0,66,65.84Z"/></g><g id="_Group_134" data-name=" Group 134"><path id="_Path_43" data-name=" Path 43" class="cls-7" d="M64.74,64.72l3.87-4A4.82,4.82,0,0,0,67,60.64L64.3,63.36A3.46,3.46,0,0,0,64.74,64.72Z"/></g><g id="_Group_135" data-name=" Group 135"><path id="_Path_44" data-name=" Path 44" class="cls-7" d="M63.81,60.44a13.69,13.69,0,0,0,.1-1.69l-1.68,1.72A10.42,10.42,0,0,0,63.81,60.44Z"/></g><g id="_Group_136" data-name=" Group 136"><path id="_Path_45" data-name=" Path 45" class="cls-7" d="M66.17,60.77c-.61.09-1.22.21-1.82.28a9.65,9.65,0,0,0-.11,1.7Z"/></g><g id="_Group_137" data-name=" Group 137"><path id="_Path_46" data-name=" Path 46" class="cls-7" d="M59.84,59.69,63,56.5a2.71,2.71,0,0,0-.35-.24,4.77,4.77,0,0,0-.83-.37L59,58.77A3.67,3.67,0,0,0,59.84,59.69Z"/></g><g id="_Group_138" data-name=" Group 138"><path id="_Path_47" data-name=" Path 47" d="M61.77,55.89l-.56-.14-2.52,2.61a4,4,0,0,0,.27.44Z"/><path id="_Compound_Path_68" data-name=" Compound Path 68" class="cls-4" d="M59,58.83h0a3.35,3.35,0,0,1-.27-.45h0l2.53-2.59h0a3.53,3.53,0,0,1,.56.14h.06Zm-.21-.49c.07.14.15.26.22.38l2.74-2.81a4.15,4.15,0,0,0-.48-.11Z"/></g><g id="_Group_139" data-name=" Group 139"><path id="_Path_48" data-name=" Path 48" d="M59.85,59.69a3,3,0,0,0,.42.27l3-3.11a2.89,2.89,0,0,0-.35-.35l-3.11,3.19Z"/><path id="_Compound_Path_69" data-name=" Compound Path 69" class="cls-4" d="M60.28,60h0l-.42-.26h0L63,56.53h0a3.06,3.06,0,0,1,.36.36h0Zm-.39-.32c.12.08.24.16.37.23l3-3.06a2.13,2.13,0,0,0-.3-.3Z"/></g><g id="_Group_140" data-name=" Group 140"><path id="_Path_49" data-name=" Path 49" d="M62.23,60.47l1.68-1.72a3.49,3.49,0,0,0-.06-.65L61.6,60.4A4.5,4.5,0,0,0,62.23,60.47Z"/><path id="_Compound_Path_70" data-name=" Compound Path 70" class="cls-4" d="M62.24,60.51h0a4.64,4.64,0,0,1-.64-.07h-.06L63.89,58v.08c0,.22,0,.43.06.65h0Zm-.56-.13.53.06,1.66-1.7a5.23,5.23,0,0,0,0-.56Z"/></g><g id="_Group_141" data-name=" Group 141"><path id="_Path_50" data-name=" Path 50" d="M64.3,63.36,67,60.64l-.79.09-1.93,2Q64.26,63,64.3,63.36Z"/><path id="_Compound_Path_71" data-name=" Compound Path 71" class="cls-4" d="M64.27,63.48v-.07a3.85,3.85,0,0,0-.06-.66h0l1.94-2h0c.31,0,.56-.08.8-.1h.1Zm0-.72v.56l2.54-2.6-.67.09Z"/></g><g id="_Group_142" data-name=" Group 142"><path id="_Path_51" data-name=" Path 51" d="M65,65.13l4.1-4.19a2.47,2.47,0,0,0-.52-.18l-3.87,4A3.37,3.37,0,0,0,65,65.13Z"/><path id="_Compound_Path_72" data-name=" Compound Path 72" class="cls-4" d="M65,65.18h0a2.45,2.45,0,0,1-.31-.41h0l3.89-4h0a4.72,4.72,0,0,1,.53.18h0Zm-.25-.46c.08.12.16.24.25.35L69,61l-.45-.15Z"/></g><g id="_Group_143" data-name=" Group 143"><path id="_Path_52" data-name=" Path 52" d="M70.1,61.68,66,65.84a4.56,4.56,0,0,0,.52.18l3.84-3.93h0A3.81,3.81,0,0,0,70.1,61.68Z"/><path id="_Compound_Path_73" data-name=" Compound Path 73" class="cls-4" d="M66.54,66.06h0a4.72,4.72,0,0,1-.53-.18H66l4.1-4.18h0a4.56,4.56,0,0,1,.27.39h0Zm-.47-.23a3.26,3.26,0,0,0,.44.15l3.8-3.89h0a1.72,1.72,0,0,0-.25-.35Z"/></g><g id="_Group_144" data-name=" Group 144"><path id="_Path_53" data-name=" Path 53" d="M62.24,55.41l-.42-.27a6.1,6.1,0,0,0-.72-.37.47.47,0,0,0-.62.27.48.48,0,0,0,.26.62l.11,0,.36.06.56.14a4.77,4.77,0,0,1,.83.37,2.71,2.71,0,0,1,.35.24,2.89,2.89,0,0,1,.35.35,2.62,2.62,0,0,1,.55,1.25,3.49,3.49,0,0,1,.06.65,13.69,13.69,0,0,1-.1,1.69v.11l-.06.55a9.93,9.93,0,0,0,0,2.18,3.77,3.77,0,0,0,.14.58,3.14,3.14,0,0,0,.41.89l.18.27.32.39a6.91,6.91,0,0,0,.87.84l.41.29a6.25,6.25,0,0,0,1.23.64.53.53,0,0,0,.66-.33.58.58,0,0,0,0-.23.53.53,0,0,0-.45-.44,6.08,6.08,0,0,1-1-.16,4.56,4.56,0,0,1-.52-.18,2.73,2.73,0,0,1-1-.71,3.81,3.81,0,0,1-.29-.41,3.68,3.68,0,0,1-.44-1.32c0-.22,0-.43-.06-.65a9.65,9.65,0,0,1,.11-1.7V60.9c0-.18,0-.36.06-.53a5.84,5.84,0,0,0-.13-2,3.38,3.38,0,0,0-.17-.54,4.21,4.21,0,0,0-.63-1.16,4.08,4.08,0,0,0-.31-.39A5.34,5.34,0,0,0,62.24,55.41Z"/><path id="_Compound_Path_74" data-name=" Compound Path 74" class="cls-4" d="M67.44,67.25h-.18A6.62,6.62,0,0,1,66,66.61l-.41-.3a7.07,7.07,0,0,1-.88-.85c-.11-.12-.22-.26-.32-.39h0l-.16-.24a3.36,3.36,0,0,1-.42-.9,3.75,3.75,0,0,1-.13-.58,8.92,8.92,0,0,1,0-2.19v-.8a11.42,11.42,0,0,0,.1-1.55,4.64,4.64,0,0,0-.07-.64,2.56,2.56,0,0,0-.53-1.23,2.38,2.38,0,0,0-.36-.35,2.62,2.62,0,0,0-.34-.24,4,4,0,0,0-.82-.36,5.09,5.09,0,0,0-.56-.14l-.35-.06a.52.52,0,0,1,.07-1,.46.46,0,0,1,.2,0c.24.11.48.23.71.36l.44.28h0a6.34,6.34,0,0,1,1,.84c.11.13.22.26.32.4a4.75,4.75,0,0,1,.64,1.17,5.6,5.6,0,0,1,.17.54,6.12,6.12,0,0,1,.13,2,1.29,1.29,0,0,1-.07.53c-.07.16,0,.06,0,.09v.06a9.54,9.54,0,0,0-.11,1.69,3.49,3.49,0,0,0,.06.65,3.55,3.55,0,0,0,.43,1.31,2.27,2.27,0,0,0,.29.4,2.73,2.73,0,0,0,1,.71,2.78,2.78,0,0,0,.51.17,6,6,0,0,0,.94.17.52.52,0,0,1,.48.46.55.55,0,0,1-.19.51A.48.48,0,0,1,67.44,67.25ZM60.9,54.77a.46.46,0,0,0-.23.06.44.44,0,0,0-.21.36.45.45,0,0,0,.4.47l.36.06a3.53,3.53,0,0,1,.56.14,3.7,3.7,0,0,1,.84.37,2.71,2.71,0,0,1,.35.24,3.06,3.06,0,0,1,.36.36,2.61,2.61,0,0,1,.56,1.27c0,.22,0,.43.06.65a13.6,13.6,0,0,1-.09,1.56v.79a8.83,8.83,0,0,0,0,2.18c0,.19.08.38.13.57a3.21,3.21,0,0,0,.41.88l.16.24h0c.1.14.21.27.32.4a6.23,6.23,0,0,0,.87.83l.4.29a5.72,5.72,0,0,0,1.23.63.46.46,0,0,0,.45-.07A.48.48,0,0,0,68,66.6a.47.47,0,0,0-.42-.4,6,6,0,0,1-.94-.16,4.72,4.72,0,0,1-.53-.18,2.59,2.59,0,0,1-1-.73,2.45,2.45,0,0,1-.31-.41,3.86,3.86,0,0,1-.44-1.33,3.85,3.85,0,0,0-.06-.66A8.16,8.16,0,0,1,64.42,61v-.15c0-.16,0-.33.06-.53a6.12,6.12,0,0,0-.12-2c0-.18-.11-.36-.17-.54a4.3,4.3,0,0,0-.63-1.15,4.08,4.08,0,0,0-.31-.39,5.77,5.77,0,0,0-1-.83h0l-.42-.27c-.23-.13-.47-.25-.71-.36A.42.42,0,0,0,60.9,54.77Z"/></g><g id="_Group_145" data-name=" Group 145"><g id="_Group_146" data-name=" Group 146"><path id="_Path_54" data-name=" Path 54" d="M63.81,60.44a10.42,10.42,0,0,1-1.58,0,4.88,4.88,0,0,1-2-.51,3,3,0,0,1-.42-.27h0a3.67,3.67,0,0,1-.88-.92,4,4,0,0,1-.27-.44,3.79,3.79,0,0,1-.28-.73.36.36,0,0,0-.37-.25.35.35,0,0,0-.31.39.34.34,0,0,0,0,.14,6.44,6.44,0,0,0,.57.8c.11.13.22.25.34.37a6.07,6.07,0,0,0,1,.82,3.87,3.87,0,0,0,.43.27,6.69,6.69,0,0,0,1.21.57l.53.17a7.63,7.63,0,0,0,1.16.21,4.69,4.69,0,0,0,.75,0l.06-.55Z"/><path id="_Compound_Path_75" data-name=" Compound Path 75" class="cls-4" d="M63.42,61.15H63a7.63,7.63,0,0,1-1.16-.21l-.54-.17a8.9,8.9,0,0,1-1.21-.57l-.44-.28a7.15,7.15,0,0,1-1-.82l-.34-.38a6.52,6.52,0,0,1-.58-.8.4.4,0,0,1,0-.37.38.38,0,0,1,.31-.21.35.35,0,0,1,.4.27,3.74,3.74,0,0,0,.29.72,2.82,2.82,0,0,0,.26.44,3.58,3.58,0,0,0,.87.91h0a3,3,0,0,0,.42.26,3.85,3.85,0,0,0,1.31.45l.63.07a10.29,10.29,0,0,0,1.57,0h0v.75h-.36Zm-5.34-3.79h0a.31.31,0,0,0-.24.17.27.27,0,0,0,0,.3,6.34,6.34,0,0,0,.57.79c.11.13.22.26.33.37a7.15,7.15,0,0,0,1,.82l.42.27a6.69,6.69,0,0,0,1.21.57l.53.17a6.44,6.44,0,0,0,1.15.2,4.33,4.33,0,0,0,.72,0v-.58a9.9,9.9,0,0,1-1.54,0,4.64,4.64,0,0,1-.64-.07,4,4,0,0,1-1.34-.45,3,3,0,0,1-.42-.27h0a3.88,3.88,0,0,1-.89-.92,3.35,3.35,0,0,1-.27-.45,3.92,3.92,0,0,1-.29-.74A.3.3,0,0,0,58.08,57.36Z"/></g><g id="_Group_147" data-name=" Group 147"><path id="_Path_55" data-name=" Path 55" d="M69.47,60.6,69,60.38a3.38,3.38,0,0,0-.62-.18,4.59,4.59,0,0,0-.83-.1h-.71l-.91.09-1.47.18a1.63,1.63,0,0,1-.06.53v.15c.6-.07,1.21-.19,1.82-.28l.79-.09a4.82,4.82,0,0,1,1.65.08,2.47,2.47,0,0,1,.52.18,2.64,2.64,0,0,1,1.27,1.13h0a.86.86,0,0,0,.76.41h0a.25.25,0,0,0,.25-.27.28.28,0,0,0-.07-.17c-.15-.16-.31-.32-.48-.47l-.38-.32A5.86,5.86,0,0,0,69.47,60.6Z"/><path id="_Compound_Path_76" data-name=" Compound Path 76" class="cls-4" d="M71.12,62.54a.93.93,0,0,1-.76-.42h0a3.28,3.28,0,0,0-.27-.38,2.55,2.55,0,0,0-1-.74,4.56,4.56,0,0,0-.52-.18A5.31,5.31,0,0,0,67,60.74l-.79.1-.66.1c-.38.07-.77.13-1.15.17h0v-.2c0-.16,0-.33.06-.53h0l.58-.07.89-.11c.34,0,.62-.07.91-.08h.71a4.81,4.81,0,0,1,.84.1,4.44,4.44,0,0,1,.62.19,4.25,4.25,0,0,1,.49.21h0a6.5,6.5,0,0,1,1,.68,3.9,3.9,0,0,1,.38.33c.18.16.34.31.48.46a.31.31,0,0,1,.06.32.32.32,0,0,1-.27.19h-.06Zm-3.51-1.93a4.79,4.79,0,0,1,1,.11,4.72,4.72,0,0,1,.53.18,2.89,2.89,0,0,1,1,.76,4.56,4.56,0,0,1,.27.39h0a.82.82,0,0,0,.69.39h.06a.22.22,0,0,0,.2-.14.25.25,0,0,0,0-.24l-.48-.46-.38-.32a6,6,0,0,0-1-.67h0A4.25,4.25,0,0,0,69,60.4a4.18,4.18,0,0,0-.6-.19,4.59,4.59,0,0,0-.83-.1h-.7l-.91.08-.9.11-.54.07a1.15,1.15,0,0,1-.07.5c-.07.15,0,.06,0,.09h0a7,7,0,0,0,1.1-.16l.66-.1c.31-.05.56-.08.8-.1Z"/></g></g></g><g id="_Group_148" data-name=" Group 148"><g id="_Group_149" data-name=" Group 149"><path id="_Path_56" data-name=" Path 56" class="cls-4" d="M33.64,62.8h-.16a1.71,1.71,0,0,1-1.31-2l.14-1.11a.45.45,0,0,1,.89.11l-.14,1.11c-.06.5.18,1,.53,1a.54.54,0,0,0,.45-.18,1,1,0,0,0,.31-.66L34.49,60a.47.47,0,0,1,.5-.39.44.44,0,0,1,.39.5l-.14,1.11a2,2,0,0,1-.57,1.19A1.46,1.46,0,0,1,33.64,62.8Z"/></g></g></g><g id="_Group_150" data-name=" Group 150"><path id="_Compound_Path_77" data-name=" Compound Path 77" class="cls-4" d="M123.1,44.08v-8h1.34v8Zm4,0-2.68-4.25L127,36.11h1.64l-2.76,3.7,2.94,4.27Z"/><path id="_Compound_Path_78" data-name=" Compound Path 78" class="cls-4" d="M130.54,44.08v-8h1.36v8Z"/><path id="_Compound_Path_79" data-name=" Compound Path 79" class="cls-4" d="M138.54,44.08l-1.75-3.72a22.84,22.84,0,0,1-1-2.36h0c.05.67.07,1.43.08,2.21v3.86h-1.33v-8H136L138,40a15.11,15.11,0,0,1,.82,2h0c0-.41-.11-1.55-.11-2.27V36.1h1.26v8Z"/><path id="_Compound_Path_80" data-name=" Compound Path 80" class="cls-4" d="M145.8,44.18a3.13,3.13,0,0,1-2.6-1.13,4.27,4.27,0,0,1-.88-2.9,4.07,4.07,0,0,1,1.49-3.52,3.13,3.13,0,0,1,2-.62,3.53,3.53,0,0,1,2.37.84l-.66.83a2.6,2.6,0,0,0-1.69-.61c-1.47,0-2,1.29-2,3.15a3.67,3.67,0,0,0,.59,2.35,2,2,0,0,0,1.51.6,2.19,2.19,0,0,0,1-.26V40.84h-1.35l-.19-1.08h2.89v3.75A4.81,4.81,0,0,1,145.8,44.18Z"/><path id="_Compound_Path_81" data-name=" Compound Path 81" class="cls-4" d="M156.41,44.23a5.14,5.14,0,0,1-2.62-.72l.51-1a4.12,4.12,0,0,0,2.15.66c1,0,1.57-.48,1.57-1.27,0-.59-.37-1-1.19-1.19l-.85-.24a2.56,2.56,0,0,1-1.54-1,2,2,0,0,1-.34-1.16,2.43,2.43,0,0,1,2.48-2.38l.23,0a4.35,4.35,0,0,1,2.52.76l-.6.93a3.42,3.42,0,0,0-1.88-.61c-.78,0-1.3.42-1.3,1.08,0,.5.28.75,1.06,1l.95.27a2.36,2.36,0,0,1,2,2.27C159.54,43,158.44,44.23,156.41,44.23Z"/><path id="_Compound_Path_82" data-name=" Compound Path 82" class="cls-4" d="M166.1,44.08l-.65-2.1h-2.58l-.64,2.1h-1.37l2.61-8H165l2.54,8Zm-1.89-6.65h0c-.16.58-.84,3-1,3.45h1.95c-.09-.18-.89-3.14-.95-3.45Z"/><path id="_Compound_Path_83" data-name=" Compound Path 83" class="cls-4" d="M172,44.21c-2.1,0-2.75-1.08-2.75-2.35V36.11h1.3v5.35c0,1.22.44,1.63,1.42,1.63s1.44-.57,1.44-1.63V36.11h1.32v5.73C174.75,43.3,173.74,44.21,172,44.21Z"/><path id="_Compound_Path_84" data-name=" Compound Path 84" class="cls-4" d="M182.2,43c-.67.85-1.36,1.12-2.84,1.12h-2v-8H179a3.64,3.64,0,0,1,3.13,1.13,4.27,4.27,0,0,1,.87,2.88A4.52,4.52,0,0,1,182.2,43Zm-1.14-5.11a1.62,1.62,0,0,0-1.5-.69h-.84V43h.88c1.4,0,2-.93,2-2.73a4.14,4.14,0,0,0-.54-2.41Z"/><path id="_Compound_Path_85" data-name=" Compound Path 85" class="cls-4" d="M191,44.08h-2.32v-8h2.11a3.46,3.46,0,0,1,2.09.4,1.8,1.8,0,0,1,.65,2.46,1.83,1.83,0,0,1-1.12.84,2,2,0,0,1,1.69,2C194.13,43.36,193,44.08,191,44.08Zm.74-6.79a2.06,2.06,0,0,0-.74-.09h-1v2.16h1.11c.48,0,.72,0,1-.3a1.17,1.17,0,0,0,.31-.79,1,1,0,0,0-.68-1Zm.15,3.24a2.24,2.24,0,0,0-.73-.07H190V43h1.2c1,0,1.45-.57,1.45-1.29a1.16,1.16,0,0,0-.75-1.16Z"/><path id="_Compound_Path_86" data-name=" Compound Path 86" class="cls-4" d="M196.48,44.08v-8h1.36v8Z"/><path id="_Compound_Path_87" data-name=" Compound Path 87" class="cls-4" d="M204.54,44.08l-1.79-3.72a22.84,22.84,0,0,1-1-2.36h0c.05.67.07,1.43.08,2.21v3.86h-1.29v-8H202L204,40a13.91,13.91,0,0,1,.82,2h0c0-.41-.11-1.55-.11-2.27V36.1h1.25v8Z"/><path id="_Compound_Path_88" data-name=" Compound Path 88" class="cls-4" d="M216.24,44.08,215.6,42H213l-.64,2.1H211l2.61-8h1.53l2.54,8Zm-1.89-6.65h0c-.16.58-.84,3-1,3.45h2C215.22,40.7,214.41,37.74,214.35,37.43Z"/><path id="_Compound_Path_89" data-name=" Compound Path 89" class="cls-4" d="M221.76,44.08h-2.32v-8h2.1a3.46,3.46,0,0,1,2.09.4,1.8,1.8,0,0,1,.65,2.46,1.83,1.83,0,0,1-1.12.84,2,2,0,0,1,1.69,2C224.86,43.36,223.77,44.08,221.76,44.08Zm.74-6.79a2.06,2.06,0,0,0-.74-.09h-1v2.16h1.11c.48,0,.72,0,1-.3a1.17,1.17,0,0,0,.31-.79,1,1,0,0,0-.64-1Zm.15,3.24a2.24,2.24,0,0,0-.73-.07h-1.17V43H222c1,0,1.45-.57,1.45-1.29a1.16,1.16,0,0,0-.75-1.16Z"/><path id="_Compound_Path_90" data-name=" Compound Path 90" class="cls-4" d="M232,43c-.67.85-1.36,1.12-2.84,1.12h-2v-8h1.66A3.7,3.7,0,0,1,232,37.21a4.33,4.33,0,0,1,.86,2.88A4.52,4.52,0,0,1,232,43Zm-1.14-5.11a1.61,1.61,0,0,0-1.49-.69h-.85V43h.87c1.4,0,2-.93,2-2.73a4,4,0,0,0-.53-2.41Z"/><path id="_Compound_Path_91" data-name=" Compound Path 91" class="cls-4" d="M237.9,44.21c-2.09,0-2.75-1.08-2.75-2.35V36.11h1.39v5.35c0,1.22.44,1.63,1.41,1.63s1.44-.57,1.44-1.63V36.11h1.32v5.73C240.66,43.3,239.65,44.21,237.9,44.21Z"/><path id="_Compound_Path_92" data-name=" Compound Path 92" class="cls-4" d="M247.38,44.08H243.3v-8h1.35V43h2.94Z"/><path id="_Compound_Path_93" data-name=" Compound Path 93" class="cls-4" d="M253.77,44.08l-.64-2.1h-2.59l-.64,2.1h-1.36l2.61-8h1.53l2.54,8Zm-1.88-6.65h0c-.17.58-.84,3-1,3.45h2A35.08,35.08,0,0,1,251.89,37.43Z"/><path id="_Compound_Path_94" data-name=" Compound Path 94" class="cls-4" d="M261.37,44.08h-4.83v-1l3.11-5.17c.22-.35.47-.7.53-.78a8.27,8.27,0,0,1-.86,0h-2.63l.3-1.1h4.68v1l-3.13,5.28c-.15.26-.4.6-.46.68s.38,0,.79,0h2.83Z"/><path id="_Compound_Path_95" data-name=" Compound Path 95" class="cls-4" d="M263.94,44.08v-8h1.36v8Z"/><path id="_Compound_Path_96" data-name=" Compound Path 96" class="cls-4" d="M272.39,44.08h-4.85v-1l3.11-5.17c.21-.35.47-.7.53-.78a8.46,8.46,0,0,1-.87,0h-2.62l.3-1.1h4.67v1l-3.12,5.28a6.24,6.24,0,0,1-.46.68h3.63Z"/></g><g id="_Group_151" data-name=" Group 151"><path id="_Compound_Path_97" data-name=" Compound Path 97" class="cls-4" d="M125.85,59.29c-2.1,0-2.75-1.08-2.75-2.36V51.19h1.33v5.35c0,1.22.44,1.62,1.42,1.62s1.44-.56,1.44-1.62V51.19h1.32v5.73C128.61,58.36,127.6,59.29,125.85,59.29Z"/><path id="_Compound_Path_98" data-name=" Compound Path 98" class="cls-4" d="M135.25,59.15l-1.78-3.74a22.26,22.26,0,0,1-1-2.36h0c.06.67.07,1.42.08,2.21l0,3.85h-1.3v-8h1.49L134.73,55a14.43,14.43,0,0,1,.81,2h0c0-.4-.12-1.54-.12-2.26V51.1h1.25v8Z"/><path id="_Compound_Path_99" data-name=" Compound Path 99" class="cls-4" d="M139.34,59.15v-8h1.36v8Z"/><path id="_Compound_Path_100" data-name=" Compound Path 100" class="cls-4" d="M146.27,59.19H145l-2.68-8h1.45l1.44,4.51a11.08,11.08,0,0,1,.42,1.6h0c.09-.38.21-.84.48-1.67l1.46-4.44H149Z"/><path id="_Compound_Path_101" data-name=" Compound Path 101" class="cls-4" d="M150.66,59.15v-8h4.42l-.17,1.08H152v2.18h2.43V55.5H152V58h3.19v1.13Z"/><path id="_Compound_Path_102" data-name=" Compound Path 102" class="cls-4" d="M161.12,59.15l-.69-1.23a9,9,0,0,0-1.35-2,.69.69,0,0,0-.52-.24v3.44h-1.3v-8h2.43c1.78,0,2.58,1,2.58,2.28a2,2,0,0,1-1.81,2.17h-.19a6.33,6.33,0,0,1,1.23,1.59l1.17,1.91Zm-1.84-6.89h-.74v2.52h.68a1.73,1.73,0,0,0,1.3-.33,1.35,1.35,0,0,0,.35-1C160.89,52.67,160.46,52.26,159.28,52.26Z"/><path id="_Compound_Path_103" data-name=" Compound Path 103" class="cls-4" d="M166.91,59.3a5.09,5.09,0,0,1-2.61-.71l.51-1a4.11,4.11,0,0,0,2.15.65c1,0,1.56-.47,1.56-1.26,0-.59-.36-1-1.18-1.19l-.85-.24a2.56,2.56,0,0,1-1.54-1,2,2,0,0,1-.34-1.16A2.43,2.43,0,0,1,167.09,51l.23,0a4.5,4.5,0,0,1,2.52.76l-.6.93a3.5,3.5,0,0,0-1.88-.61c-.78,0-1.3.43-1.3,1.09,0,.49.28.74,1.06,1l.94.28a2.36,2.36,0,0,1,2,2.27C170,58.07,169,59.3,166.91,59.3Z"/><path id="_Compound_Path_104" data-name=" Compound Path 104" class="cls-4" d="M172.31,59.15v-8h1.36v8Z"/><path id="_Compound_Path_105" data-name=" Compound Path 105" class="cls-4" d="M181,52.29h-2v6.86h-1.32V52.29h-2v-1.1h5.51Z"/><path id="_Compound_Path_106" data-name=" Compound Path 106" class="cls-4" d="M185.4,55.94v3.21H184V55.93l-2.49-4.74h1.6l1.2,2.5c.21.45.39.92.42,1,.05-.11.25-.61.44-1l1.22-2.52H188Z"/><path id="_Compound_Path_107" data-name=" Compound Path 107" class="cls-4" d="M196.86,52.27h-2.73v2.16h2.22V55.5h-2.22v3.65h-1.32v-8H197Z"/><path id="_Compound_Path_108" data-name=" Compound Path 108" class="cls-4" d="M201.66,59.28c-2.27,0-3.38-1.75-3.38-4.11,0-2.62,1.33-4.1,3.32-4.1,2.25,0,3.33,1.79,3.33,4.11C204.93,57.67,203.73,59.28,201.66,59.28Zm-.07-7.18c-1.33,0-1.84,1.08-1.84,3s.52,3.19,1.88,3.19c1.18,0,1.79-.88,1.79-3,0-1.93-.4-3.19-1.83-3.19Z"/><path id="_Compound_Path_109" data-name=" Compound Path 109" class="cls-4" d="M211.14,59.15l-.69-1.23a9,9,0,0,0-1.35-2,.69.69,0,0,0-.52-.24v3.44h-1.3v-8h2.43c1.78,0,2.58,1,2.58,2.28a2,2,0,0,1-1.81,2.17h-.19a6.33,6.33,0,0,1,1.23,1.59l1.17,1.91Zm-1.84-6.89h-.76v2.52h.68a1.73,1.73,0,0,0,1.3-.33,1.35,1.35,0,0,0,.35-1C210.91,52.67,210.48,52.26,209.3,52.26Z"/><path id="_Compound_Path_110" data-name=" Compound Path 110" class="cls-4" d="M222.08,59.15V55.47h-2.72v3.68h-1.31v-8h1.31v3.21h2.72v-3.2h1.33v8Z"/><path id="_Compound_Path_111" data-name=" Compound Path 111" class="cls-4" d="M226.11,59.15v-8h4.43l-.18,1.08h-2.9v2.18h2.43V55.5h-2.43V58h3.19v1.13Z"/><path id="_Compound_Path_112" data-name=" Compound Path 112" class="cls-4" d="M237,59.15l-.64-2.09h-2.58l-.64,2.09h-1.37l2.61-8h1.53l2.54,8Zm-1.88-6.65h0c-.16.59-.83,3-1,3.45h2A34.3,34.3,0,0,1,235.11,52.5Z"/><path id="_Compound_Path_113" data-name=" Compound Path 113" class="cls-4" d="M244.27,59.15h-4.08v-8h1.35V58h3Z"/><path id="_Compound_Path_114" data-name=" Compound Path 114" class="cls-4" d="M251,52.29h-2v6.86h-1.33V52.29h-2v-1.1h5.51Z"/><path id="_Compound_Path_115" data-name=" Compound Path 115" class="cls-4" d="M256.71,59.15V55.47H254v3.68h-1.31v-8H254v3.21h2.72v-3.2H258v8Z"/><path id="_Compound_Path_116" data-name=" Compound Path 116" class="cls-4" d="M266.27,59.3a5.09,5.09,0,0,1-2.61-.71l.51-1a4.11,4.11,0,0,0,2.15.65c1,0,1.57-.47,1.57-1.26,0-.59-.37-1-1.19-1.19l-.85-.24a2.56,2.56,0,0,1-1.54-1,2,2,0,0,1-.34-1.16A2.43,2.43,0,0,1,266.45,51l.23,0a4.5,4.5,0,0,1,2.52.76l-.6.93a3.5,3.5,0,0,0-1.88-.61c-.78,0-1.3.43-1.3,1.09,0,.49.28.74,1.06,1l.94.28a2.36,2.36,0,0,1,2,2.27C269.38,58.07,268.31,59.3,266.27,59.3Z"/><path id="_Compound_Path_117" data-name=" Compound Path 117" class="cls-4" d="M274.76,59.28a3.11,3.11,0,0,1-2.52-1.15,4.35,4.35,0,0,1-.91-2.84,5,5,0,0,1,.53-2.42A3.27,3.27,0,0,1,274.79,51a3.13,3.13,0,0,1,2,.62l-.61.88a2.22,2.22,0,0,0-1.36-.45,1.77,1.77,0,0,0-1.59.95,4.34,4.34,0,0,0-.41,2.1,4.55,4.55,0,0,0,.31,2,1.86,1.86,0,0,0,1.77,1.13,2.14,2.14,0,0,0,1.43-.5l.62.84A3.43,3.43,0,0,1,274.76,59.28Z"/><path id="_Compound_Path_118" data-name=" Compound Path 118" class="cls-4" d="M279.05,59.15v-8h1.36v8Z"/><path id="_Compound_Path_119" data-name=" Compound Path 119" class="cls-4" d="M283.1,59.15v-8h4.44l-.17,1.08h-2.9v2.18h2.43V55.5h-2.43V58h3.18v1.13Z"/><path id="_Compound_Path_120" data-name=" Compound Path 120" class="cls-4" d="M293.7,59.15l-1.78-3.74a22.26,22.26,0,0,1-1-2.36h0c.06.67.07,1.42.08,2.21l.05,3.85h-1.3v-8h1.49L293.17,55a14,14,0,0,1,.82,2h0c0-.4-.12-1.54-.12-2.26V51.1h1.25v8Z"/><path id="_Compound_Path_121" data-name=" Compound Path 121" class="cls-4" d="M300.87,59.28a3.11,3.11,0,0,1-2.52-1.15,4.35,4.35,0,0,1-.91-2.84,5,5,0,0,1,.53-2.42A3.27,3.27,0,0,1,300.91,51a3.13,3.13,0,0,1,2,.62l-.61.88a2.19,2.19,0,0,0-1.35-.45,1.77,1.77,0,0,0-1.59.95,4.12,4.12,0,0,0-.41,2.1,4.55,4.55,0,0,0,.31,2A1.84,1.84,0,0,0,301,58.27a2.11,2.11,0,0,0,1.42-.5l.63.84A3.5,3.5,0,0,1,300.87,59.28Z"/><path id="_Compound_Path_122" data-name=" Compound Path 122" class="cls-4" d="M305.17,59.15v-8h4.37l-.17,1.08h-2.83v2.18H309V55.5h-2.43V58h3.19v1.13Z"/><path id="_Compound_Path_123" data-name=" Compound Path 123" class="cls-4" d="M314,59.3a5.09,5.09,0,0,1-2.61-.71l.5-1a4.11,4.11,0,0,0,2.15.65c1,0,1.57-.47,1.57-1.26,0-.59-.37-1-1.19-1.19l-.85-.24a2.63,2.63,0,0,1-1.54-1,2,2,0,0,1-.33-1.16A2.42,2.42,0,0,1,314.13,51l.24,0a4.42,4.42,0,0,1,2.52.76l-.6.93a3.47,3.47,0,0,0-1.87-.61c-.78,0-1.3.43-1.3,1.09,0,.49.27.74,1.06,1l.94.28a2.36,2.36,0,0,1,2,2.27C317.08,58.07,316,59.3,314,59.3Z"/></g><g id="_Group_152" data-name=" Group 152"><path id="_Compound_Path_124" data-name=" Compound Path 124" class="cls-4" d="M123.1,29V10h3.21V29Zm9.62,0-6.39-10.12L132.5,10h3.9l-6.58,8.8,7,10.18Z"/><path id="_Compound_Path_125" data-name=" Compound Path 125" class="cls-4" d="M144.29,29.36a12,12,0,0,1-6.22-1.7l1.2-2.41a9.74,9.74,0,0,0,5.13,1.56c2.33,0,3.73-1.12,3.73-3,0-1.39-.88-2.27-2.82-2.82l-2-.58a6.23,6.23,0,0,1-3.68-2.27,4.78,4.78,0,0,1-.79-2.77c0-3.35,2.63-5.62,6.44-5.62a10.51,10.51,0,0,1,6,1.81l-1.43,2.22a8.21,8.21,0,0,0-4.47-1.46c-1.86,0-3.1,1-3.1,2.58,0,1.18.66,1.78,2.53,2.33l2.24.66c2.75.8,4.67,2.55,4.67,5.4C151.7,26.36,149.15,29.36,144.29,29.36Z"/><path id="_Compound_Path_126" data-name=" Compound Path 126" class="cls-4" d="M165.62,29l-1.53-5h-6.15l-1.53,5h-3.26l6.22-19H163l6.06,19Zm-4.49-15.86h0c-.39,1.4-2,7.11-2.39,8.23h4.66C163.18,20.94,161.26,13.86,161.13,13.12Z"/><path id="_Compound_Path_127" data-name=" Compound Path 127" class="cls-4" d="M177.91,29.3c-5,0-6.56-2.57-6.56-5.62V10h3.19V22.75c0,2.91,1,3.87,3.38,3.87s3.42-1.35,3.42-3.87V10h3.2V23.66C184.54,27.14,182.07,29.3,177.91,29.3Z"/><path id="_Compound_Path_128" data-name=" Compound Path 128" class="cls-4" d="M188.18,22.91V20.12h6v2.79Z"/><path id="_Compound_Path_129" data-name=" Compound Path 129" class="cls-4" d="M207.63,29V20.2h-6.48V29H198V10h3.12V17.6h6.48V10h3.18V29Z"/><path id="_Compound_Path_130" data-name=" Compound Path 130" class="cls-4" d="M220.73,29.36a12,12,0,0,1-6.22-1.7l1.2-2.41a9.74,9.74,0,0,0,5.13,1.56c2.33,0,3.73-1.12,3.73-3,0-1.39-.88-2.27-2.83-2.82l-2-.58a6.2,6.2,0,0,1-3.68-2.27,4.78,4.78,0,0,1-.79-2.77c0-3.35,2.63-5.62,6.44-5.62a10.51,10.51,0,0,1,6,1.81l-1.43,2.22a8.24,8.24,0,0,0-4.47-1.46c-1.87,0-3.1,1-3.1,2.58,0,1.18.66,1.78,2.52,2.33l2.25.66c2.74.8,4.66,2.55,4.66,5.4C228.13,26.36,225.54,29.36,220.73,29.36Z"/></g><g id="_Group_153" data-name=" Group 153"><path id="_Compound_Path_131" data-name=" Compound Path 131" class="cls-8" d="M126.45,77h.89l3.26,8.32h-.85l-1-2.59H125l-1,2.59h-.85Zm-1.26,5h3.28l-1.61-4.26Z"/><path id="_Compound_Path_132" data-name=" Compound Path 132" class="cls-8" d="M135.68,77h.8v5.15c0,1.92.89,2.66,2.43,2.66s2.45-.74,2.45-2.66V77h.79v5.32a3.24,3.24,0,0,1-6.47,0Z"/><path id="_Compound_Path_133" data-name=" Compound Path 133" class="cls-8" d="M144.18,79.36h.73v1h0a2,2,0,0,1,1.92-1.21c1.69,0,2.2.89,2.2,2.32v3.89h-.73V81.6c0-1-.34-1.81-1.53-1.81a1.9,1.9,0,0,0-1.9,1.9c0,.06,0,.11,0,.16v3.51h-.73Z"/><path id="_Compound_Path_134" data-name=" Compound Path 134" class="cls-8" d="M151,77h.74v1.18H151Zm0,2.31h.74v6H151Z"/><path id="_Compound_Path_135" data-name=" Compound Path 135" class="cls-8" d="M153.1,79.36h.81l1.89,5.27h0l1.86-5.27h.76l-2.25,6h-.78Z"/><path id="_Compound_Path_136" data-name=" Compound Path 136" class="cls-8" d="M160.18,82.55a2.13,2.13,0,0,0,1.88,2.35h.12a1.83,1.83,0,0,0,1.89-1.54h.73a2.44,2.44,0,0,1-2.62,2.16c-1.91,0-2.71-1.47-2.71-3.18s.8-3.18,2.71-3.18,2.7,1.69,2.64,3.38Zm3.89-.62a2,2,0,0,0-1.85-2.14h-.06a2.14,2.14,0,0,0-2,2.14Z"/><path id="_Compound_Path_137" data-name=" Compound Path 137" class="cls-8" d="M166.38,79.36h.68v1.4h0a2.21,2.21,0,0,1,2.27-1.49V80a2.06,2.06,0,0,0-2.23,1.89,2.26,2.26,0,0,0,0,.26v3.2h-.73Z"/><path id="_Compound_Path_138" data-name=" Compound Path 138" class="cls-8" d="M174.23,81.1c0-.91-.73-1.31-1.57-1.31-.65,0-1.42.25-1.42,1s.73.89,1.25,1l1,.22c.84.13,1.72.62,1.72,1.66,0,1.31-1.3,1.81-2.41,1.81a2.17,2.17,0,0,1-2.45-1.85,2.45,2.45,0,0,1,0-.27h.73a1.58,1.58,0,0,0,1.65,1.51h.12c.7,0,1.64-.3,1.64-1.14s-.65-.93-1.31-1.09l-.95-.21c-1-.25-1.67-.6-1.67-1.61,0-1.22,1.2-1.69,2.26-1.69A2,2,0,0,1,175,80.91a.66.66,0,0,1,0,.14Z"/><path id="_Compound_Path_139" data-name=" Compound Path 139" class="cls-8" d="M176.83,77h.71v1.18h-.74Zm0,2.31h.71v6h-.74Z"/><path id="_Compound_Path_140" data-name=" Compound Path 140" class="cls-8" d="M180.73,79.36H182V80h-1.22V84c0,.47.07.75.59.79q.31,0,.63,0v.54h-.65c-1,0-1.32-.33-1.31-1.36V80h-1.05v-.6H180V77.55h.74Z"/><path id="_Compound_Path_141" data-name=" Compound Path 141" class="cls-8" d="M182.92,79.36h.78l2,5.12,1.84-5.12h.73l-2.61,6.93c-.43,1-.66,1.3-1.58,1.3a1.75,1.75,0,0,1-.56-.06v-.62a2.07,2.07,0,0,0,.5.06c.65,0,.81-.38,1-.94l.26-.69Z"/><path id="_Compound_Path_142" data-name=" Compound Path 142" class="cls-8" d="M195.71,80h-1.17v5.4h-.73V80h-1v-.6h1v-.55c0-1,.27-1.76,1.46-1.76a3.14,3.14,0,0,1,.61,0v.62a3.17,3.17,0,0,0-.53,0c-.81,0-.81.52-.81,1.16v.53h1.19Z"/><path id="_Compound_Path_143" data-name=" Compound Path 143" class="cls-8" d="M202.38,82.36a2.94,2.94,0,1,1,0-.26A2.35,2.35,0,0,1,202.38,82.36Zm-4.95,0a2.15,2.15,0,1,0,2.1-2.56,2.3,2.3,0,0,0-2.11,2.48s0,0,0,.08Z"/><path id="_Compound_Path_144" data-name=" Compound Path 144" class="cls-8" d="M204.06,79.36h.67v1.4h0A2.21,2.21,0,0,1,207,79.27V80a2.06,2.06,0,0,0-2.23,1.89,2.26,2.26,0,0,0,0,.26v3.2H204Z"/><path id="_Compound_Path_145" data-name=" Compound Path 145" class="cls-8" d="M213.3,79.36h1.24V80h-1.22V84c0,.47.07.75.59.79q.32,0,.63,0v.54h-.65c-1,0-1.32-.33-1.3-1.36V80h-1v-.6h1V77.55h.73Z"/><path id="_Compound_Path_146" data-name=" Compound Path 146" class="cls-8" d="M216.15,77h.74v3.32h0a2,2,0,0,1,1.92-1.21c1.69,0,2.21.89,2.21,2.32v3.89h-.74V81.6c0-1-.34-1.81-1.52-1.81a1.9,1.9,0,0,0-1.9,1.88,1.09,1.09,0,0,0,0,.18v3.51h-.74Z"/><path id="_Compound_Path_147" data-name=" Compound Path 147" class="cls-8" d="M223.44,82.55a2.13,2.13,0,0,0,1.88,2.35h.12a1.82,1.82,0,0,0,1.88-1.54h.74a2.45,2.45,0,0,1-2.62,2.16c-1.91,0-2.72-1.47-2.72-3.18s.81-3.18,2.72-3.18,2.7,1.69,2.64,3.38Zm3.89-.62a2,2,0,0,0-1.85-2.14h-.06a2.14,2.14,0,0,0-2,2.14Z"/><path id="_Compound_Path_148" data-name=" Compound Path 148" class="cls-8" d="M233.59,77h.88l4.85,7h0V77h.79v8.32h-.88l-4.85-7h0v7h-.79Z"/><path id="_Compound_Path_149" data-name=" Compound Path 149" class="cls-8" d="M242.18,81.19c.08-1.41,1-2,2.43-2,1.06,0,2.22.31,2.22,1.93v3.19c0,.3.14.45.43.45a.46.46,0,0,0,.23-.05v.65a2.61,2.61,0,0,1-.48,0c-.74,0-.86-.44-.86-1h0A2.3,2.3,0,0,1,244,85.58c-1.12,0-2-.55-2-1.76,0-1.68,1.64-1.75,3.23-1.93.6-.06.94-.17.94-.82,0-1-.7-1.23-1.57-1.23a1.42,1.42,0,0,0-1.61,1.4Zm3.91.88h0c-.09.18-.42.23-.62.27-1.25.22-2.79.22-2.79,1.38A1.24,1.24,0,0,0,244,84.91h0a1.93,1.93,0,0,0,2.09-1.75.57.57,0,0,0,0-.13Z"/><path id="_Compound_Path_150" data-name=" Compound Path 150" class="cls-8" d="M250,79.36h1.23V80H250V84c0,.47.07.75.6.79q.31,0,.63,0v.54h-.66c-1,0-1.31-.33-1.3-1.36V80h-1v-.6h1V77.55H250Z"/><path id="_Compound_Path_151" data-name=" Compound Path 151" class="cls-8" d="M252.92,77h.74v1.18h-.74Zm0,2.31h.74v6h-.74Z"/><path id="_Compound_Path_152" data-name=" Compound Path 152" class="cls-8" d="M261,82.36a2.84,2.84,0,1,1,0-.28C261,82.18,261,82.27,261,82.36Zm-4.95,0a2.15,2.15,0,1,0,2.11-2.56,2.3,2.3,0,0,0-2.12,2.47s0,.06,0,.09Z"/><path id="_Compound_Path_153" data-name=" Compound Path 153" class="cls-8" d="M262.7,79.36h.73v1h0a2,2,0,0,1,1.92-1.21c1.69,0,2.2.89,2.2,2.32v3.89h-.73V81.6c0-1-.34-1.81-1.53-1.81a1.9,1.9,0,0,0-1.9,1.9c0,.06,0,.11,0,.16v3.51h-.73Z"/><path id="_Compound_Path_154" data-name=" Compound Path 154" class="cls-8" d="M270.11,77h.74v2.83h-.74Z"/><path id="_Compound_Path_155" data-name=" Compound Path 155" class="cls-8" d="M277,81.1c0-.91-.74-1.31-1.58-1.31-.65,0-1.42.25-1.42,1s.74.89,1.25,1l1,.22a1.78,1.78,0,0,1,1.71,1.66c0,1.31-1.29,1.81-2.41,1.81a2.17,2.17,0,0,1-2.45-1.85,2.45,2.45,0,0,1,0-.27h.73a1.58,1.58,0,0,0,1.65,1.51h.12c.7,0,1.64-.3,1.64-1.14s-.65-.93-1.31-1.09l-.94-.21c-1-.25-1.68-.6-1.68-1.61,0-1.22,1.2-1.69,2.26-1.69a2,2,0,0,1,2.19,1.79.66.66,0,0,1,0,.14Z"/><path id="_Compound_Path_156" data-name=" Compound Path 156" class="cls-8" d="M283.54,77h.79v3.61h4.94V77h.79v8.32h-.79v-4h-4.94v4h-.79Z"/><path id="_Compound_Path_157" data-name=" Compound Path 157" class="cls-8" d="M292.6,82.55a2.13,2.13,0,0,0,1.88,2.35h.12a1.82,1.82,0,0,0,1.89-1.54h.74a2.46,2.46,0,0,1-2.63,2.16c-1.91,0-2.71-1.47-2.71-3.18s.8-3.18,2.71-3.18,2.71,1.69,2.65,3.38Zm3.89-.62a2,2,0,0,0-1.85-2.14h-.06a2.14,2.14,0,0,0-2,2.14Z"/><path id="_Compound_Path_158" data-name=" Compound Path 158" class="cls-8" d="M298.73,81.19c.09-1.41,1-2,2.44-2,1.06,0,2.21.31,2.21,1.93v3.19c0,.3.14.45.43.45a.69.69,0,0,0,.24-.05v.65a2.61,2.61,0,0,1-.48,0c-.75,0-.86-.44-.86-1h0a2.27,2.27,0,0,1-2.19,1.22c-1.11,0-2-.55-2-1.76,0-1.68,1.64-1.75,3.23-1.93.6-.06.94-.17.94-.82,0-1-.7-1.23-1.57-1.23a1.42,1.42,0,0,0-1.61,1.4Zm3.92.88h0c-.09.18-.41.23-.61.27-1.25.22-2.8.22-2.8,1.38a1.24,1.24,0,0,0,1.29,1.19h.05a1.93,1.93,0,0,0,2.09-1.75.57.57,0,0,0,0-.13Z"/><path id="_Compound_Path_159" data-name=" Compound Path 159" class="cls-8" d="M305.45,77h.73v8.32h-.73Z"/><path id="_Compound_Path_160" data-name=" Compound Path 160" class="cls-8" d="M309.34,79.36h1.2V80h-1.2V84c0,.47.07.75.59.79q.31,0,.63,0v.54h-.65c-1,0-1.32-.33-1.3-1.36V80h-1.07v-.6h1V77.55h.73Z"/><path id="_Compound_Path_161" data-name=" Compound Path 161" class="cls-8" d="M312.19,77h.74v3.32h0a2,2,0,0,1,1.92-1.21c1.69,0,2.21.89,2.21,2.32v3.89h-.74V81.6c0-1-.34-1.81-1.52-1.81a1.9,1.9,0,0,0-1.9,1.88,1.09,1.09,0,0,0,0,.18v3.51h-.74Z"/></g></g></g></svg>